<?xml version="1.0" encoding="utf-8"?>
<!-- Generator: Adobe Illustrator 27.5.0, SVG Export Plug-In . SVG Version: 6.00 Build 0)  -->
<svg version="1.1" xmlns="http://www.w3.org/2000/svg" xmlns:xlink="http://www.w3.org/1999/xlink" x="0px" y="0px"
	 viewBox="0 0 800 800" style="enable-background:new 0 0 800 800;" xml:space="preserve">
<g id="background">
	<g>
		<g>
			<path style="fill:#4B4B4B;" d="M286.024,774.287v-0.257c-0.349,0.398-0.692,0.724-1.031,0.973
				c-0.338,0.251-0.706,0.441-1.102,0.57c-0.396,0.132-0.827,0.195-1.296,0.195c-0.621,0-1.196-0.131-1.725-0.394
				c-0.528-0.263-0.986-0.639-1.372-1.126c-0.387-0.487-0.68-1.06-0.879-1.719c-0.199-0.659-0.299-1.371-0.299-2.137
				c0-1.621,0.396-2.886,1.188-3.791c0.792-0.904,1.833-1.357,3.125-1.357c0.747,0,1.377,0.129,1.89,0.384
				c0.513,0.257,1.013,0.652,1.501,1.183v-3.827c0-0.532,0.105-0.934,0.318-1.206c0.211-0.273,0.514-0.408,0.907-0.408
				c0.393,0,0.694,0.125,0.907,0.375c0.212,0.251,0.318,0.618,0.318,1.106v11.436c0,0.494-0.113,0.864-0.342,1.111
				c-0.228,0.246-0.522,0.37-0.883,0.37c-0.354,0-0.647-0.128-0.879-0.384C286.139,775.127,286.024,774.761,286.024,774.287z
				 M280.923,770.478c0,0.703,0.109,1.301,0.328,1.795c0.219,0.494,0.518,0.866,0.897,1.115c0.38,0.251,0.795,0.377,1.244,0.377
				c0.456,0,0.872-0.119,1.25-0.357c0.376-0.236,0.677-0.602,0.902-1.091c0.225-0.491,0.337-1.105,0.337-1.839
				c0-0.69-0.112-1.284-0.337-1.782c-0.225-0.496-0.528-0.876-0.912-1.14c-0.383-0.262-0.803-0.393-1.258-0.393
				c-0.475,0-0.899,0.135-1.273,0.403c-0.374,0.269-0.663,0.654-0.869,1.158C281.026,769.229,280.923,769.813,280.923,770.478z"/>
			<path style="fill:#4B4B4B;" d="M297.458,771.134h-5.071c0.006,0.588,0.124,1.107,0.356,1.557c0.23,0.45,0.538,0.789,0.921,1.017
				c0.383,0.229,0.806,0.341,1.268,0.341c0.31,0,0.593-0.035,0.85-0.107c0.257-0.074,0.505-0.187,0.746-0.343
				c0.241-0.154,0.462-0.321,0.664-0.499c0.202-0.178,0.464-0.419,0.788-0.723c0.133-0.113,0.323-0.171,0.571-0.171
				c0.266,0,0.48,0.074,0.645,0.22c0.165,0.146,0.248,0.351,0.248,0.617c0,0.234-0.093,0.507-0.275,0.821
				c-0.185,0.314-0.462,0.614-0.832,0.902c-0.371,0.288-0.835,0.526-1.397,0.717c-0.56,0.19-1.204,0.285-1.933,0.285
				c-1.664,0-2.96-0.476-3.884-1.425c-0.924-0.949-1.386-2.238-1.386-3.865c0-0.767,0.113-1.478,0.341-2.132
				c0.228-0.656,0.561-1.218,0.997-1.686c0.437-0.469,0.975-0.827,1.615-1.078c0.639-0.25,1.349-0.374,2.127-0.374
				c1.013,0,1.882,0.212,2.606,0.641c0.726,0.427,1.27,0.979,1.63,1.656c0.36,0.678,0.542,1.369,0.542,2.07
				c0,0.653-0.187,1.075-0.56,1.269C298.662,771.037,298.136,771.134,297.458,771.134z M292.386,769.662h4.702
				c-0.063-0.887-0.303-1.551-0.717-1.99c-0.415-0.44-0.96-0.66-1.638-0.66c-0.646,0-1.177,0.223-1.591,0.669
				C292.727,768.127,292.476,768.788,292.386,769.662z"/>
			<path style="fill:#4B4B4B;" d="M309.273,772.377c0,0.716-0.173,1.329-0.523,1.839c-0.348,0.51-0.862,0.896-1.543,1.159
				c-0.68,0.263-1.508,0.394-2.483,0.394c-0.931,0-1.728-0.143-2.394-0.428c-0.665-0.284-1.156-0.642-1.472-1.067
				c-0.317-0.429-0.475-0.857-0.475-1.288c0-0.285,0.101-0.528,0.304-0.731c0.202-0.202,0.459-0.304,0.77-0.304
				c0.272,0,0.48,0.066,0.626,0.199c0.146,0.133,0.286,0.32,0.417,0.56c0.266,0.464,0.585,0.807,0.956,1.036
				c0.37,0.227,0.875,0.342,1.515,0.342c0.519,0,0.945-0.116,1.277-0.347c0.332-0.232,0.498-0.496,0.498-0.794
				c0-0.456-0.172-0.787-0.518-0.996c-0.345-0.209-0.914-0.409-1.705-0.6c-0.893-0.221-1.619-0.454-2.18-0.698
				c-0.561-0.242-1.008-0.565-1.344-0.963c-0.335-0.399-0.503-0.891-0.503-1.473c0-0.518,0.155-1.01,0.465-1.473
				c0.311-0.461,0.768-0.83,1.374-1.105c0.603-0.276,1.333-0.414,2.188-0.414c0.671,0,1.275,0.069,1.809,0.21
				c0.536,0.138,0.983,0.326,1.34,0.561c0.358,0.233,0.63,0.493,0.816,0.777c0.187,0.285,0.28,0.563,0.28,0.837
				c0,0.297-0.1,0.541-0.298,0.731c-0.199,0.188-0.482,0.285-0.85,0.285c-0.266,0-0.492-0.076-0.679-0.23
				c-0.187-0.151-0.4-0.379-0.641-0.683c-0.196-0.253-0.426-0.456-0.693-0.608c-0.266-0.152-0.627-0.228-1.083-0.228
				c-0.469,0-0.857,0.099-1.168,0.3c-0.31,0.198-0.465,0.446-0.465,0.744c0,0.273,0.114,0.496,0.341,0.67
				c0.229,0.175,0.535,0.319,0.922,0.433c0.386,0.113,0.917,0.252,1.596,0.417c0.803,0.197,1.46,0.432,1.97,0.703
				c0.509,0.271,0.895,0.594,1.16,0.965C309.142,771.48,309.273,771.902,309.273,772.377z"/>
			<path style="fill:#4B4B4B;" d="M311.922,764.02c-0.361,0-0.669-0.111-0.926-0.333c-0.256-0.221-0.385-0.534-0.385-0.94
				c0-0.368,0.131-0.669,0.394-0.907c0.263-0.238,0.569-0.356,0.917-0.356c0.336,0,0.633,0.107,0.893,0.323
				c0.26,0.216,0.39,0.528,0.39,0.94c0,0.399-0.127,0.711-0.381,0.936C312.57,763.907,312.27,764.02,311.922,764.02z
				 M313.204,766.698v7.493c0,0.52-0.124,0.913-0.371,1.179c-0.247,0.266-0.56,0.398-0.94,0.398s-0.689-0.136-0.926-0.408
				c-0.238-0.273-0.356-0.662-0.356-1.169v-7.418c0-0.512,0.118-0.898,0.356-1.158c0.237-0.26,0.546-0.39,0.926-0.39
				s0.693,0.13,0.94,0.39C313.081,765.875,313.204,766.236,313.204,766.698z"/>
			<path style="fill:#4B4B4B;" d="M324.563,767.125v7.531c0,0.861-0.093,1.602-0.277,2.224c-0.182,0.619-0.477,1.133-0.883,1.538
				c-0.405,0.404-0.936,0.706-1.59,0.901c-0.655,0.197-1.471,0.295-2.446,0.295c-0.893,0-1.69-0.125-2.393-0.375
				c-0.702-0.251-1.243-0.573-1.624-0.969c-0.379-0.396-0.57-0.803-0.57-1.221c0-0.316,0.108-0.575,0.324-0.773
				c0.215-0.2,0.475-0.3,0.778-0.3c0.38,0,0.712,0.168,0.997,0.503c0.139,0.171,0.283,0.345,0.432,0.519
				c0.149,0.175,0.314,0.323,0.494,0.447c0.181,0.122,0.398,0.214,0.65,0.274c0.253,0.059,0.545,0.09,0.874,0.09
				c0.671,0,1.192-0.093,1.563-0.28c0.371-0.186,0.63-0.448,0.779-0.784c0.149-0.334,0.236-0.693,0.261-1.077
				c0.025-0.384,0.044-0.999,0.057-1.849c-0.399,0.559-0.859,0.983-1.382,1.274c-0.522,0.291-1.145,0.437-1.866,0.437
				c-0.868,0-1.625-0.222-2.275-0.665c-0.648-0.443-1.147-1.063-1.495-1.861c-0.349-0.799-0.522-1.719-0.522-2.764
				c0-0.778,0.105-1.482,0.317-2.108c0.213-0.628,0.515-1.156,0.907-1.587c0.393-0.431,0.845-0.755,1.358-0.974
				c0.513-0.218,1.076-0.327,1.691-0.327c0.734,0,1.371,0.142,1.909,0.422c0.538,0.283,1.039,0.725,1.501,1.326v-0.352
				c0-0.449,0.11-0.797,0.332-1.045c0.222-0.246,0.507-0.37,0.855-0.37c0.5,0,0.832,0.164,0.997,0.489
				C324.48,766.041,324.563,766.511,324.563,767.125z M317.05,770.412c0,1.051,0.229,1.846,0.688,2.384
				c0.459,0.539,1.053,0.808,1.781,0.808c0.43,0,0.837-0.116,1.22-0.347c0.384-0.232,0.695-0.58,0.937-1.045
				c0.24-0.466,0.361-1.03,0.361-1.695c0-1.057-0.232-1.881-0.698-2.469c-0.466-0.589-1.078-0.884-1.838-0.884
				c-0.741,0-1.334,0.282-1.78,0.846C317.273,768.572,317.05,769.374,317.05,770.412z"/>
			<path style="fill:#4B4B4B;" d="M328.684,766.66v0.313c0.455-0.602,0.954-1.043,1.496-1.325c0.542-0.281,1.163-0.423,1.866-0.423
				c0.684,0,1.295,0.149,1.833,0.447c0.538,0.298,0.941,0.719,1.206,1.262c0.172,0.317,0.282,0.66,0.333,1.026
				c0.051,0.368,0.077,0.836,0.077,1.406v4.824c0,0.52-0.119,0.913-0.357,1.179c-0.237,0.266-0.546,0.398-0.926,0.398
				c-0.387,0-0.7-0.136-0.941-0.408c-0.241-0.273-0.361-0.662-0.361-1.169v-4.321c0-0.854-0.119-1.509-0.357-1.961
				c-0.238-0.452-0.71-0.68-1.42-0.68c-0.461,0-0.883,0.138-1.263,0.413c-0.38,0.276-0.659,0.655-0.836,1.136
				c-0.126,0.387-0.19,1.107-0.19,2.165v3.248c0,0.525-0.123,0.921-0.365,1.184c-0.244,0.263-0.559,0.394-0.945,0.394
				c-0.374,0-0.681-0.136-0.922-0.408c-0.24-0.273-0.361-0.662-0.361-1.169v-7.493c0-0.494,0.107-0.863,0.323-1.107
				c0.215-0.243,0.51-0.365,0.883-0.365c0.229,0,0.435,0.054,0.619,0.162c0.183,0.108,0.331,0.269,0.441,0.483
				C328.629,766.086,328.684,766.35,328.684,766.66z"/>
			<path style="fill:#4B4B4B;" d="M344.458,771.134h-5.071c0.007,0.588,0.125,1.107,0.356,1.557c0.231,0.45,0.538,0.789,0.921,1.017
				c0.382,0.229,0.805,0.341,1.267,0.341c0.311,0,0.594-0.035,0.851-0.107c0.255-0.074,0.504-0.187,0.746-0.343
				c0.24-0.154,0.461-0.321,0.665-0.499c0.202-0.178,0.464-0.419,0.788-0.723c0.133-0.113,0.323-0.171,0.57-0.171
				c0.266,0,0.482,0.074,0.646,0.22c0.165,0.146,0.247,0.351,0.247,0.617c0,0.234-0.091,0.507-0.275,0.821
				c-0.184,0.314-0.461,0.614-0.831,0.902c-0.371,0.288-0.835,0.526-1.396,0.717c-0.561,0.19-1.205,0.285-1.933,0.285
				c-1.665,0-2.96-0.476-3.885-1.425c-0.923-0.949-1.386-2.238-1.386-3.865c0-0.767,0.114-1.478,0.342-2.132
				c0.228-0.656,0.561-1.218,0.998-1.686c0.436-0.469,0.975-0.827,1.614-1.078c0.639-0.25,1.349-0.374,2.128-0.374
				c1.013,0,1.881,0.212,2.606,0.641c0.726,0.427,1.269,0.979,1.63,1.656c0.36,0.678,0.542,1.369,0.542,2.07
				c0,0.653-0.186,1.075-0.56,1.269C345.662,771.037,345.136,771.134,344.458,771.134z M339.387,769.662h4.701
				c-0.063-0.887-0.302-1.551-0.717-1.99c-0.415-0.44-0.961-0.66-1.638-0.66c-0.646,0-1.177,0.223-1.592,0.669
				C339.726,768.127,339.476,768.788,339.387,769.662z"/>
			<path style="fill:#4B4B4B;" d="M355.028,774.287v-0.257c-0.348,0.398-0.691,0.724-1.03,0.973
				c-0.339,0.251-0.706,0.441-1.102,0.57c-0.395,0.132-0.828,0.195-1.296,0.195c-0.622,0-1.196-0.131-1.724-0.394
				c-0.529-0.263-0.986-0.639-1.373-1.126c-0.387-0.487-0.679-1.06-0.878-1.719c-0.2-0.659-0.299-1.371-0.299-2.137
				c0-1.621,0.395-2.886,1.187-3.791c0.792-0.904,1.833-1.357,3.125-1.357c0.747,0,1.378,0.129,1.89,0.384
				c0.513,0.257,1.013,0.652,1.5,1.183v-3.827c0-0.532,0.106-0.934,0.319-1.206c0.211-0.273,0.515-0.408,0.907-0.408
				c0.392,0,0.694,0.125,0.907,0.375c0.212,0.251,0.318,0.618,0.318,1.106v11.436c0,0.494-0.114,0.864-0.342,1.111
				c-0.228,0.246-0.522,0.37-0.883,0.37c-0.354,0-0.647-0.128-0.879-0.384C355.144,775.127,355.028,774.761,355.028,774.287z
				 M349.928,770.478c0,0.703,0.108,1.301,0.327,1.795c0.218,0.494,0.518,0.866,0.898,1.115c0.379,0.251,0.794,0.377,1.243,0.377
				c0.457,0,0.873-0.119,1.249-0.357c0.377-0.236,0.678-0.602,0.902-1.091c0.225-0.491,0.337-1.105,0.337-1.839
				c0-0.69-0.112-1.284-0.337-1.782c-0.224-0.496-0.528-0.876-0.912-1.14c-0.384-0.262-0.803-0.393-1.259-0.393
				c-0.474,0-0.899,0.135-1.272,0.403c-0.373,0.269-0.663,0.654-0.869,1.158C350.03,769.229,349.928,769.813,349.928,770.478z"/>
			<path style="fill:#4B4B4B;" d="M365.626,762.851v3.96c0.487-0.506,0.984-0.895,1.491-1.163c0.506-0.269,1.134-0.403,1.881-0.403
				c0.861,0,1.616,0.204,2.266,0.611c0.648,0.41,1.151,1.002,1.51,1.777c0.357,0.774,0.537,1.695,0.537,2.76
				c0,0.785-0.1,1.504-0.299,2.16c-0.2,0.655-0.49,1.224-0.869,1.704c-0.38,0.481-0.841,0.854-1.382,1.117
				c-0.542,0.263-1.139,0.394-1.79,0.394c-0.4,0-0.775-0.047-1.126-0.143c-0.352-0.095-0.651-0.219-0.898-0.375
				c-0.246-0.154-0.457-0.314-0.631-0.479c-0.174-0.164-0.404-0.412-0.689-0.741v0.257c0,0.487-0.117,0.856-0.352,1.107
				c-0.233,0.25-0.531,0.374-0.893,0.374c-0.367,0-0.66-0.124-0.878-0.374c-0.219-0.251-0.328-0.62-0.328-1.107v-11.322
				c0-0.525,0.106-0.923,0.317-1.191c0.212-0.269,0.509-0.403,0.889-0.403c0.399,0,0.706,0.128,0.921,0.384
				C365.518,762.011,365.626,762.375,365.626,762.851z M365.75,770.554c0,1.032,0.236,1.824,0.708,2.378
				c0.472,0.555,1.091,0.833,1.857,0.833c0.652,0,1.214-0.283,1.686-0.851c0.472-0.567,0.708-1.379,0.708-2.437
				c0-0.684-0.097-1.273-0.294-1.767c-0.197-0.494-0.475-0.876-0.835-1.145c-0.361-0.268-0.783-0.403-1.264-0.403
				c-0.494,0-0.935,0.135-1.32,0.403c-0.386,0.269-0.69,0.658-0.912,1.168C365.861,769.244,365.75,769.851,365.75,770.554z"/>
			<path style="fill:#4B4B4B;" d="M376.672,776.091l0.237-0.58l-3.191-8.035c-0.196-0.461-0.295-0.798-0.295-1.007
				c0-0.222,0.058-0.427,0.171-0.616c0.114-0.19,0.271-0.343,0.47-0.456c0.2-0.115,0.407-0.172,0.623-0.172
				c0.373,0,0.655,0.119,0.846,0.357c0.19,0.237,0.357,0.577,0.503,1.021l2.194,6.383l2.08-5.937
				c0.164-0.479,0.313-0.857,0.446-1.13c0.133-0.273,0.273-0.456,0.422-0.55c0.148-0.096,0.359-0.144,0.632-0.144
				c0.197,0,0.385,0.052,0.565,0.157c0.18,0.104,0.319,0.245,0.417,0.423c0.098,0.177,0.148,0.363,0.148,0.56
				c-0.026,0.12-0.066,0.291-0.124,0.514c-0.058,0.221-0.126,0.447-0.208,0.674l-3.381,8.852c-0.292,0.778-0.577,1.389-0.855,1.832
				c-0.279,0.443-0.647,0.785-1.106,1.021c-0.46,0.238-1.078,0.357-1.857,0.357c-0.759,0-1.33-0.082-1.708-0.246
				c-0.381-0.166-0.57-0.467-0.57-0.903c0-0.297,0.089-0.527,0.271-0.688c0.18-0.161,0.448-0.243,0.801-0.243
				c0.14,0,0.276,0.02,0.409,0.059c0.164,0.037,0.307,0.057,0.427,0.057c0.297,0,0.532-0.044,0.704-0.134
				c0.17-0.088,0.324-0.241,0.46-0.461C376.337,776.837,376.495,776.515,376.672,776.091z"/>
		</g>
		<g>
			<path style="fill:#4B4B4B;" d="M414.235,765.45h0.618v-0.778c0-0.814,0.1-1.457,0.307-1.938c0.204-0.479,0.556-0.826,1.047-1.045
				c0.49-0.217,1.163-0.326,2.017-0.326c1.52,0,2.273,0.367,2.273,1.114c0,0.238-0.079,0.444-0.24,0.615
				c-0.154,0.169-0.343,0.256-0.558,0.256c-0.1,0-0.278-0.019-0.527-0.06c-0.237-0.033-0.452-0.056-0.623-0.056
				c-0.468,0-0.767,0.141-0.905,0.415c-0.127,0.275-0.195,0.669-0.195,1.185v0.617h0.633c0.991,0,1.481,0.297,1.481,0.895
				c0,0.419-0.127,0.69-0.393,0.805c-0.262,0.114-0.624,0.171-1.089,0.171h-0.633v6.871c0,0.511-0.12,0.9-0.369,1.168
				c-0.241,0.272-0.554,0.406-0.942,0.406c-0.367,0-0.671-0.134-0.918-0.406c-0.244-0.268-0.364-0.657-0.364-1.168v-6.871h-0.714
				c-0.389,0-0.683-0.084-0.893-0.262c-0.209-0.171-0.315-0.399-0.315-0.678C412.931,765.757,413.366,765.45,414.235,765.45"/>
			<path style="fill:#4B4B4B;" d="M422.724,772.024v2.168c0,0.523-0.133,0.919-0.374,1.18c-0.247,0.266-0.559,0.395-0.938,0.395
				c-0.382,0-0.688-0.131-0.927-0.4c-0.236-0.264-0.36-0.656-0.36-1.174v-7.223c0-1.166,0.42-1.749,1.261-1.749
				c0.434,0,0.743,0.135,0.934,0.408c0.19,0.273,0.295,0.674,0.317,1.208c0.308-0.534,0.624-0.935,0.948-1.208
				c0.332-0.273,0.763-0.408,1.31-0.408c0.549,0,1.072,0.135,1.585,0.408c0.516,0.273,0.771,0.637,0.771,1.085
				c0,0.315-0.11,0.58-0.326,0.781c-0.22,0.209-0.454,0.312-0.706,0.312c-0.1,0-0.331-0.063-0.692-0.18
				c-0.365-0.113-0.688-0.173-0.963-0.173c-0.38,0-0.692,0.103-0.932,0.298c-0.242,0.205-0.431,0.497-0.564,0.887
				c-0.129,0.395-0.219,0.865-0.272,1.404C422.747,770.584,422.724,771.246,422.724,772.024"/>
			<path style="fill:#4B4B4B;" d="M434.645,771.131h-5.074c0.009,0.588,0.124,1.11,0.354,1.559c0.235,0.446,0.54,0.786,0.925,1.017
				c0.385,0.227,0.804,0.34,1.268,0.34c0.311,0,0.593-0.033,0.85-0.111c0.254-0.069,0.505-0.186,0.745-0.341
				c0.242-0.152,0.46-0.318,0.664-0.5c0.202-0.175,0.467-0.416,0.79-0.719c0.135-0.113,0.324-0.174,0.568-0.174
				c0.269,0,0.481,0.074,0.649,0.222c0.166,0.147,0.243,0.351,0.243,0.617c0,0.235-0.089,0.508-0.268,0.819
				c-0.188,0.317-0.463,0.616-0.836,0.906c-0.374,0.285-0.839,0.527-1.398,0.714c-0.559,0.19-1.206,0.286-1.932,0.286
				c-1.671,0-2.964-0.473-3.887-1.422c-0.924-0.952-1.392-2.242-1.392-3.868c0-0.767,0.117-1.478,0.348-2.135
				c0.225-0.658,0.558-1.216,0.999-1.688c0.436-0.471,0.97-0.828,1.612-1.078c0.638-0.249,1.347-0.374,2.128-0.374
				c1.011,0,1.881,0.214,2.606,0.646c0.724,0.423,1.273,0.977,1.629,1.654c0.361,0.681,0.542,1.368,0.542,2.074
				c0,0.648-0.189,1.07-0.562,1.266C435.847,771.035,435.323,771.131,434.645,771.131 M429.571,769.657h4.701
				c-0.063-0.885-0.298-1.55-0.714-1.986c-0.418-0.442-0.959-0.66-1.641-0.66c-0.645,0-1.177,0.22-1.592,0.669
				C429.912,768.125,429.658,768.784,429.571,769.657"/>
			<path style="fill:#4B4B4B;" d="M445.432,771.131h-5.073c0.006,0.588,0.125,1.11,0.355,1.559c0.231,0.446,0.539,0.786,0.921,1.017
				c0.383,0.227,0.806,0.34,1.271,0.34c0.308,0,0.593-0.033,0.845-0.111c0.259-0.069,0.506-0.186,0.75-0.341
				c0.242-0.152,0.46-0.318,0.664-0.5c0.199-0.175,0.464-0.416,0.788-0.719c0.135-0.113,0.326-0.174,0.568-0.174
				c0.268,0,0.483,0.074,0.65,0.222c0.165,0.147,0.24,0.351,0.24,0.617c0,0.235-0.087,0.508-0.273,0.819
				c-0.177,0.317-0.455,0.616-0.83,0.906c-0.37,0.285-0.84,0.527-1.396,0.714c-0.558,0.19-1.208,0.286-1.935,0.286
				c-1.667,0-2.959-0.473-3.887-1.422c-0.924-0.952-1.389-2.242-1.389-3.868c0-0.767,0.116-1.478,0.348-2.135
				c0.227-0.658,0.559-1.216,0.996-1.688c0.436-0.471,0.973-0.828,1.614-1.078c0.638-0.249,1.351-0.374,2.129-0.374
				c1.009,0,1.878,0.214,2.613,0.646c0.72,0.423,1.266,0.977,1.621,1.654c0.359,0.681,0.545,1.368,0.545,2.074
				c0,0.648-0.191,1.07-0.561,1.266C446.632,771.035,446.108,771.131,445.432,771.131 M440.359,769.657h4.701
				c-0.063-0.885-0.304-1.55-0.715-1.986c-0.421-0.442-0.962-0.66-1.643-0.66c-0.646,0-1.176,0.22-1.593,0.669
				C440.697,768.125,440.443,768.784,440.359,769.657"/>
			<path style="fill:#4B4B4B;" d="M451.112,766.679v0.311c0.486-0.601,0.994-1.042,1.524-1.324c0.519-0.284,1.118-0.427,1.782-0.427
				c0.795,0,1.535,0.208,2.207,0.617c0.671,0.414,1.198,1.016,1.589,1.807c0.39,0.795,0.586,1.729,0.586,2.813
				c0,0.796-0.112,1.531-0.336,2.201c-0.224,0.668-0.537,1.227-0.929,1.68c-0.394,0.45-0.855,0.802-1.39,1.046
				c-0.542,0.241-1.111,0.363-1.728,0.363c-0.738,0-1.364-0.148-1.865-0.447c-0.503-0.292-0.982-0.733-1.441-1.306v3.893
				c0,1.136-0.416,1.71-1.244,1.71c-0.49,0-0.809-0.146-0.972-0.44c-0.151-0.299-0.233-0.724-0.233-1.291v-11.193
				c0-0.495,0.106-0.859,0.32-1.107c0.215-0.239,0.512-0.364,0.885-0.364c0.369,0,0.666,0.125,0.895,0.374
				C450.999,765.848,451.112,766.205,451.112,766.679 M456.196,770.447c0-0.684-0.107-1.273-0.315-1.763
				c-0.209-0.492-0.499-0.867-0.866-1.128c-0.367-0.263-0.782-0.396-1.232-0.396c-0.714,0-1.318,0.284-1.809,0.844
				c-0.492,0.566-0.739,1.396-0.739,2.493c0,1.026,0.244,1.833,0.735,2.406c0.487,0.573,1.086,0.858,1.813,0.858
				c0.429,0,0.83-0.126,1.197-0.372c0.371-0.253,0.665-0.627,0.884-1.127C456.085,771.76,456.196,771.155,456.196,770.447"/>
			<path style="fill:#4B4B4B;" d="M461.412,764.013c-0.362,0-0.669-0.114-0.923-0.335c-0.26-0.223-0.388-0.532-0.388-0.937
				c0-0.368,0.131-0.67,0.396-0.91c0.262-0.234,0.566-0.356,0.914-0.356c0.34,0,0.636,0.107,0.894,0.319
				c0.26,0.219,0.391,0.534,0.391,0.946c0,0.399-0.127,0.711-0.378,0.936C462.064,763.899,461.763,764.013,461.412,764.013
				 M462.696,766.692v7.502c0,0.516-0.124,0.908-0.37,1.172c-0.25,0.27-0.561,0.4-0.941,0.4c-0.381,0-0.685-0.134-0.928-0.406
				c-0.233-0.276-0.355-0.665-0.355-1.166v-7.428c0-0.51,0.122-0.895,0.355-1.154c0.243-0.265,0.547-0.392,0.928-0.392
				c0.381,0,0.691,0.127,0.941,0.392C462.572,765.872,462.696,766.234,462.696,766.692"/>
			<path style="fill:#4B4B4B;" d="M471.055,774.583l-2.284-3.766l-1.408,1.328v2.065c0,0.499-0.133,0.882-0.396,1.149
				c-0.257,0.272-0.566,0.406-0.906,0.406c-0.398,0-0.715-0.131-0.94-0.4c-0.227-0.264-0.344-0.656-0.344-1.174v-11.063
				c0-0.573,0.114-1.011,0.331-1.313c0.223-0.305,0.545-0.452,0.953-0.452c0.4,0,0.713,0.137,0.949,0.411
				c0.234,0.271,0.353,0.674,0.353,1.202v6.293l2.916-3.063c0.362-0.376,0.633-0.641,0.827-0.778
				c0.189-0.139,0.419-0.208,0.689-0.208c0.326,0,0.594,0.104,0.815,0.309c0.211,0.206,0.32,0.466,0.32,0.773
				c0,0.379-0.353,0.889-1.055,1.521l-1.377,1.263l2.659,4.183c0.193,0.313,0.339,0.544,0.424,0.706
				c0.084,0.159,0.13,0.319,0.13,0.462c0,0.413-0.114,0.734-0.341,0.976c-0.225,0.236-0.524,0.354-0.886,0.354
				c-0.316,0-0.564-0.081-0.733-0.256C471.582,775.337,471.345,775.027,471.055,774.583"/>
			<path style="fill:#4B4B4B;" d="M476.691,775.766c-0.392,0-0.728-0.126-1.014-0.381c-0.284-0.249-0.429-0.606-0.429-1.065
				c0-0.386,0.138-0.719,0.41-0.995c0.274-0.279,0.607-0.419,1.008-0.419c0.397,0,0.735,0.14,1.022,0.412
				c0.279,0.275,0.422,0.612,0.422,1.002c0,0.452-0.143,0.808-0.422,1.06C477.402,775.64,477.07,775.766,476.691,775.766"/>
			<path style="fill:#4B4B4B;" d="M489.589,772.556c0,0.32-0.097,0.668-0.291,1.034c-0.191,0.37-0.488,0.718-0.886,1.05
				c-0.395,0.332-0.892,0.602-1.495,0.804c-0.601,0.202-1.28,0.307-2.03,0.307c-1.607,0-2.858-0.47-3.758-1.401
				c-0.896-0.936-1.346-2.189-1.346-3.76c0-1.067,0.204-2.006,0.619-2.824c0.407-0.815,1.004-1.447,1.781-1.894
				c0.779-0.448,1.716-0.67,2.794-0.67c0.674,0,1.288,0.098,1.853,0.295c0.561,0.195,1.032,0.451,1.425,0.759
				c0.387,0.315,0.685,0.644,0.89,0.992c0.207,0.352,0.308,0.681,0.308,0.987c0,0.308-0.113,0.571-0.343,0.787
				c-0.235,0.215-0.516,0.324-0.839,0.324c-0.219,0-0.397-0.057-0.541-0.166c-0.144-0.112-0.305-0.29-0.479-0.542
				c-0.317-0.478-0.646-0.842-0.996-1.079c-0.343-0.243-0.78-0.362-1.314-0.362c-0.762,0-1.384,0.298-1.854,0.898
				c-0.468,0.596-0.703,1.42-0.703,2.454c0,0.488,0.063,0.939,0.183,1.348c0.117,0.407,0.291,0.756,0.52,1.044
				c0.23,0.287,0.504,0.505,0.826,0.654c0.324,0.153,0.681,0.226,1.064,0.226c0.521,0,0.967-0.12,1.337-0.36
				c0.376-0.241,0.702-0.607,0.986-1.102c0.158-0.291,0.327-0.518,0.509-0.684c0.183-0.163,0.409-0.249,0.676-0.249
				c0.316,0,0.58,0.123,0.786,0.362C489.483,772.027,489.589,772.286,489.589,772.556"/>
			<path style="fill:#4B4B4B;" d="M500.78,770.496c0,0.769-0.122,1.484-0.355,2.139c-0.247,0.652-0.592,1.213-1.05,1.679
				c-0.455,0.469-1.002,0.828-1.632,1.08c-0.64,0.247-1.35,0.375-2.139,0.375c-0.785,0-1.493-0.128-2.121-0.383
				c-0.623-0.249-1.171-0.614-1.626-1.082c-0.461-0.477-0.809-1.034-1.052-1.677c-0.23-0.644-0.351-1.355-0.351-2.131
				c0-0.786,0.124-1.506,0.358-2.158c0.242-0.654,0.589-1.212,1.039-1.673c0.451-0.462,0.993-0.817,1.631-1.07
				c0.644-0.249,1.35-0.374,2.121-0.374c0.784,0,1.498,0.125,2.139,0.382c0.638,0.251,1.183,0.614,1.643,1.079
				c0.458,0.475,0.803,1.029,1.04,1.672C500.66,769.004,500.78,769.713,500.78,770.496 M498.176,770.496
				c0-1.059-0.234-1.881-0.698-2.469c-0.463-0.596-1.09-0.888-1.874-0.888c-0.508,0-0.955,0.132-1.343,0.394
				c-0.387,0.262-0.681,0.649-0.89,1.164c-0.209,0.514-0.316,1.113-0.316,1.799c0,0.679,0.103,1.267,0.31,1.773
				c0.208,0.511,0.502,0.897,0.886,1.166c0.386,0.267,0.835,0.404,1.353,0.404c0.784,0,1.411-0.296,1.874-0.892
				C497.942,772.357,498.176,771.537,498.176,770.496"/>
			<path style="fill:#4B4B4B;" d="M510.671,770.686v3.446c0,0.547-0.12,0.951-0.369,1.228c-0.25,0.272-0.571,0.408-0.977,0.408
				c-0.393,0-0.714-0.136-0.951-0.408c-0.247-0.276-0.372-0.681-0.372-1.228v-4.131c0-0.653-0.021-1.162-0.063-1.524
				c-0.046-0.354-0.168-0.655-0.362-0.883c-0.196-0.235-0.509-0.352-0.931-0.352c-0.851,0-1.407,0.29-1.677,0.881
				c-0.268,0.576-0.406,1.413-0.406,2.507v3.502c0,0.538-0.122,0.946-0.361,1.224c-0.249,0.273-0.567,0.412-0.965,0.412
				c-0.395,0-0.717-0.139-0.967-0.412c-0.252-0.277-0.376-0.686-0.376-1.224v-7.419c0-0.489,0.111-0.86,0.335-1.111
				c0.229-0.257,0.526-0.382,0.89-0.382c0.356,0,0.651,0.123,0.892,0.355c0.236,0.238,0.354,0.566,0.354,0.984v0.245
				c0.453-0.535,0.935-0.932,1.444-1.181c0.517-0.26,1.082-0.386,1.713-0.386c0.651,0,1.211,0.131,1.678,0.39
				c0.47,0.261,0.853,0.655,1.16,1.177c0.439-0.528,0.909-0.923,1.41-1.181c0.5-0.257,1.053-0.386,1.662-0.386
				c0.706,0,1.321,0.143,1.834,0.419c0.51,0.278,0.893,0.68,1.148,1.195c0.221,0.473,0.33,1.21,0.33,2.217v5.063
				c0,0.547-0.122,0.951-0.367,1.228c-0.246,0.272-0.575,0.408-0.979,0.408c-0.395,0-0.714-0.139-0.965-0.412
				c-0.25-0.277-0.376-0.686-0.376-1.224v-4.361c0-0.559-0.023-1.003-0.069-1.338c-0.047-0.337-0.177-0.62-0.383-0.847
				c-0.212-0.228-0.53-0.344-0.953-0.344c-0.342,0-0.666,0.107-0.974,0.308c-0.307,0.198-0.547,0.477-0.721,0.813
				C510.77,768.801,510.671,769.576,510.671,770.686"/>
		</g>
		<g>
			<path style="fill:#4B4B4B;" d="M389.967,769.868c-0.002-0.005-0.002-0.01-0.002-0.018
				C389.965,769.858,389.965,769.863,389.967,769.868z"/>
			<path style="fill:#4B4B4B;" d="M390.098,770.697c0.002,0,0.002,0,0.003,0c-0.05-0.236-0.088-0.471-0.119-0.702
				C390.012,770.228,390.051,770.463,390.098,770.697z"/>
			<path style="fill:#4B4B4B;" d="M390.956,773.103c-0.006-0.01-0.011-0.021-0.017-0.033
				C390.945,773.082,390.95,773.093,390.956,773.103z"/>
			<path style="fill:#4B4B4B;" d="M390.874,772.943c-0.022-0.044-0.044-0.09-0.065-0.134
				C390.83,772.856,390.852,772.899,390.874,772.943z"/>
			<path style="fill:#4B4B4B;" d="M390.339,771.624c0.127,0.4,0.28,0.788,0.457,1.158c-0.18-0.378-0.33-0.767-0.454-1.158
				C390.341,771.624,390.34,771.624,390.339,771.624z"/>
			<path style="fill:#4B4B4B;" d="M400.004,759.931c0.501,0,0.871,0.04,1.295,0.111l0.12-0.763c0,0-1.171-0.36-2.71-0.234
				l-0.121-0.415c0.479-0.101,0.838-0.526,0.838-1.034c0-0.582-0.474-1.054-1.057-1.054c-0.583,0-1.056,0.472-1.056,1.054
				c0,0.508,0.358,0.934,0.836,1.034l0.134,0.463c-1.634,0.225-2.935,0.862-2.935,0.862l0.23,0.705
				c0.989-0.329,1.846-0.529,2.624-0.613C398.964,759.966,399.537,759.931,400.004,759.931z"/>
			<path style="fill:#4B4B4B;" d="M390.936,763.79l0.006-0.008c0.039-0.05,0.076-0.097,0.113-0.143l-0.313-0.226l-0.488-0.356
				c-0.027,0.038-0.795,0.744-1.401,2.048c-0.025-0.041-0.056-0.081-0.09-0.119c-0.182-0.198-0.436-0.3-0.758-0.294
				c-0.004,0-0.009,0-0.015,0c-0.2,0-0.337-0.066-0.427-0.147c0.089-0.113,0.143-0.256,0.143-0.413c0-0.368-0.3-0.669-0.669-0.669
				c-0.369,0-0.668,0.301-0.668,0.669c0,0.37,0.3,0.669,0.668,0.669c0.058,0,0.113-0.01,0.167-0.021
				c0.165,0.183,0.425,0.342,0.808,0.334c0.197-0.002,0.341,0.049,0.438,0.155c0.111,0.121,0.148,0.296,0.16,0.428
				c-0.001,0.002-0.001,0.005-0.003,0.005c-0.435,1.189-0.311,2.67-0.311,2.67l1.057,0.042c0.021-0.539,0.099-1.482,0.372-2.23
				C390.25,764.734,390.91,763.828,390.936,763.79z"/>
			<path style="fill:#4B4B4B;" d="M409.204,760.815c-0.368,0-0.669,0.299-0.669,0.669c0,0.058,0.009,0.112,0.023,0.165
				c-0.184,0.166-0.343,0.428-0.337,0.81c0.003,0.197-0.048,0.34-0.154,0.437c-0.085,0.075-0.191,0.115-0.296,0.141
				c-0.787-1.103-1.756-1.775-1.756-1.775l-0.759,0.814c0.573,0.521,1.159,1.175,1.729,1.99c0.394,0.563,0.799,1.29,1.136,2.015
				l1.024-0.486c0,0-0.468-1.155-1.126-2.191c0.114-0.04,0.23-0.103,0.331-0.192c0.2-0.181,0.299-0.436,0.293-0.758
				c-0.002-0.208,0.066-0.349,0.148-0.441c0.114,0.087,0.257,0.143,0.412,0.143c0.371,0,0.67-0.3,0.67-0.669
				C409.874,761.114,409.575,760.815,409.204,760.815z"/>
			<path style="fill:#4B4B4B;" d="M406.546,770.017c-1.409,0.687-3.728,1.594-6.781,2.02c-1.198,0.166-2.359,0.228-3.428,0.228
				c-1.391,0-2.62-0.104-3.563-0.223c-1.076-0.136-1.917-0.302-2.432-0.418c0.124,0.392,0.273,0.78,0.454,1.158
				c0.003,0.01,0.008,0.021,0.013,0.027c0.022,0.044,0.043,0.09,0.065,0.134c0.022,0.044,0.043,0.087,0.065,0.127
				c0.006,0.012,0.011,0.023,0.017,0.033c0.303,0.57,0.667,1.095,1.081,1.549c1.44,1.575,2.907,1.824,2.921,1.826l0.023,0.003
				l0.021,0.008c0.013,0.005,1.314,0.425,3.292,0.425c1.945,0,3.854-0.393,5.674-1.167c1.348-0.689,2.622-1.736,3.254-2.67
				c0.488-0.723,0.841-1.493,1.05-2.294c0.111-0.426,0.199-1.107,0.147-1.825C408.022,769.224,407.395,769.604,406.546,770.017z"/>
			<path style="fill:#4B4B4B;" d="M391.389,764.124c-0.041,0.06-0.652,0.925-1.135,2.253c-0.362,0.995-0.346,2.443-0.346,2.46v0.003
				c0,0.34,0.019,0.677,0.057,1.011c0,0.008,0,0.013,0.002,0.018c0.004,0.043,0.011,0.084,0.015,0.127
				c0.03,0.231,0.069,0.466,0.119,0.702c0.7,0.178,4.878,1.152,9.548,0.502c2.927-0.407,5.149-1.273,6.499-1.927
				c1.121-0.544,1.842-1.036,2.12-1.238c-0.277-1.028-1.042-2.641-1.743-3.646c-2.005-2.865-4.167-3.601-5.277-3.783
				c-0.424-0.069-0.763-0.109-1.243-0.109c-0.447,0-1.002,0.036-1.743,0.114c-0.743,0.077-1.572,0.273-2.532,0.596
				c-1.348,0.451-2.567,1.159-3.527,2.048l-0.033,0.03C392.027,763.414,391.73,763.689,391.389,764.124z M403.659,763.457
				c0.961,0,1.743,0.781,1.743,1.743c0,0.962-0.782,1.744-1.743,1.744c-0.962,0-1.742-0.782-1.742-1.744
				C401.917,764.238,402.697,763.457,403.659,763.457z M395.417,763.387c1.557,0,2.817,1.262,2.817,2.817
				c0,1.556-1.26,2.815-2.817,2.815c-1.555,0-2.816-1.259-2.816-2.815C392.601,764.649,393.862,763.387,395.417,763.387z"/>
		</g>
	</g>
</g>
<g id="objects">
	<g>
		<g>
			<circle style="fill:#4DCDFF;" cx="136.886" cy="138.72" r="102.276"/>
			<g>
				<defs>
					<circle id="SVGID_1_" cx="136.886" cy="138.72" r="102.276"/>
				</defs>
				<clipPath id="SVGID_00000072269552173949268130000012615041856403787166_">
					<use xlink:href="#SVGID_1_"  style="overflow:visible;"/>
				</clipPath>
				<g style="clip-path:url(#SVGID_00000072269552173949268130000012615041856403787166_);">
					<g>
						<path style="fill:#818689;" d="M183.12,69.067c-9.829,0.289-16.19,6.36-16.19,6.36s-3.445-3.238-12.431-6.938
							c-5.994-2.468-12.092-3.404-17.725-3.395v-0.005c-0.103-0.001-0.209,0.003-0.312,0.003c-0.103,0.001-0.209-0.004-0.312-0.003
							v0.005c-5.633-0.009-11.731,0.927-17.725,3.395c-8.986,3.7-12.431,6.938-12.431,6.938s-6.36-6.071-16.19-6.36
							c-9.829-0.289-12.721,0.867-12.431,6.649c0.289,5.782,1.156,18.503,4.915,25.441c3.758,6.939,4.626,8.384,7.806,6.939
							c3.18-1.446,10.408-9.83,13.01-13.588s3.18-6.36,3.18-6.36s5.493,12.431,5.782,21.394c0.289,8.962,0,16.768-1.156,22.261
							c-1.156,5.493-13.424,31.278-17.346,41.92c-5.631,15.278-8.945,44.155-7.517,65.337c1.672,24.798,5.647,47.075,10.408,61.579
							c5.396,16.439,7.517,21.394,9.251,23.417c1.735,2.024,19.659,3.469,25.73,2.313c1.81-0.345,3.507-0.667,5.027-1.044
							c1.52,0.378,3.217,0.7,5.027,1.044c6.071,1.156,23.996-0.289,25.73-2.313c1.735-2.024,3.855-6.979,9.251-23.417
							c4.761-14.504,8.736-36.781,10.408-61.579c1.428-21.183-1.885-50.06-7.517-65.337c-3.923-10.642-16.19-36.427-17.346-41.92
							c-1.156-5.493-1.446-13.299-1.156-22.261s5.782-21.394,5.782-21.394s0.578,2.602,3.18,6.36
							c2.602,3.758,9.83,12.142,13.01,13.588c3.18,1.445,4.047,0,7.806-6.939c3.758-6.938,4.626-19.659,4.915-25.441
							C195.841,69.934,192.95,68.778,183.12,69.067z M140.333,274.33c-0.478,7.546-2.008,13.756-3.871,18.847
							c-1.863-5.091-3.393-11.301-3.871-18.847c-1.171-18.502-0.996-32.223,3.871-36.012
							C141.329,242.108,141.504,255.828,140.333,274.33z"/>
						<path style="fill:#E1D9CB;" d="M119.923,136.789c-4.264,0.011-8.442-0.217-12.688-0.217c-6.217,0-12.623-0.623-16.251,5.253
							c-4.836,7.832-5.224,19.969-4.33,28.801c0.531,5.244,0.128,10.764,0.878,15.957c0.588,4.072,3.718,7.653,8.071,7.893
							c5.007,0.276,7.447-6.515,11.86-8.049c3.438-1.195,5.598,2.152,7.491,4.489c2.349,2.901,6.615,6.062,10.463,3.558
							c3.757-2.445,5.166-8.015,10.551-7.606c5.164,0.392,6.855,6.235,11.878,7.172c7.316,1.365,7.672-6.63,13.274-8.475
							c5.196-1.712,7.67,5.645,11.565,7.507c5.158,2.465,10.622,0.761,12.745-4.795c1.569-4.106,1.18-9.34,1.175-13.639
							c-0.006-4.709-0.318-9.293-0.704-13.974c-0.499-6.052,0.531-12.309-2.982-17.587c-4.68-7.031-14.589-7.437-22.21-6.684
							C153.599,137.095,124.637,136.777,119.923,136.789z"/>
						<path style="fill:#E1D9CB;" d="M138.429,197.857c-6.188-0.199-10.333,3.387-13.489,5.768
							c-3.826,2.887-7.082,7.301-9.741,11.252c-1.826,2.713-10.841,17.513-1.146,15.588c4.806-0.954,10.185-7.702,12.953-11.453
							c1.68,3.431,2.752,7.035,6.824,8.521c4.957,1.809,9.331-3.429,10.083-7.93c2.206,3.809,18.633,16.877,19.349,6.277
							c0.64-9.483-9.052-18.443-15.396-24.221C145.274,199.298,141.681,197.987,138.429,197.857z"/>
						<g>
							<path style="fill:#E1D9CB;" d="M116.732,87.027c-4.094,1.733-4.987,7.393-4.987,11.28c0,1.946,0.624,10.569,3.992,9.109
								c1.709-0.74,1.982-4.519,1.906-6.062c1.421,1.348,2.956,4.633,5.485,4.321c2.359-0.292,2.815-3.636,2.971-5.573
								c1.718,3.012,6.675,4.738,8.423,0.742c1.261-2.884,0.524-7.554-1.095-10.131C130.041,85.324,121.946,84.627,116.732,87.027z"
								/>
							<path style="fill:#E1D9CB;" d="M156.193,87.027c4.094,1.733,4.987,7.393,4.987,11.28c0,1.946-0.624,10.569-3.992,9.109
								c-1.709-0.74-1.982-4.519-1.906-6.062c-1.421,1.348-2.956,4.633-5.485,4.321c-2.359-0.292-2.815-3.636-2.971-5.573
								c-1.718,3.012-6.675,4.738-8.423,0.742c-1.261-2.884-0.524-7.554,1.095-10.131C142.883,85.324,150.979,84.627,156.193,87.027
								z"/>
						</g>
						<g>
							<path style="fill:#231F20;" d="M140.667,132.926c-4.67,0-13.832-0.882-17.72,2.2c-5.079,4.027,1.078,10.685,3.346,14.064
								c2.217,3.302,7.374,9.405,12.104,7.759c5.093-1.772,10.854-9.904,12.804-14.693
								C154.677,133.718,144.892,132.691,140.667,132.926z"/>
							<ellipse style="fill:#FFFFFF;" cx="136.174" cy="137.873" rx="8.023" ry="2.385"/>
						</g>
						<g>
							<g>
								<circle style="fill:#231F20;" cx="127.068" cy="118.576" r="5.345"/>
								<circle style="fill:#FFFFFF;" cx="127.068" cy="118.576" r="1.681"/>
							</g>
							<g>
								<circle style="fill:#231F20;" cx="145.857" cy="118.357" r="5.345"/>
								<circle style="fill:#FFFFFF;" cx="145.857" cy="118.357" r="1.681"/>
							</g>
						</g>
					</g>
					<path style="opacity:0.2;fill:#FFFFFF;" d="M136.886,291.958c-0.14,0.409-0.279,0.824-0.424,1.219
						c-1.863-5.091-3.393-11.301-3.871-18.847c-1.171-18.502-0.996-32.223,3.871-36.012c0.15,0.117,0.282,0.272,0.424,0.407V65.096
						c-0.037,0-0.075-0.002-0.112-0.002v-0.005c-0.103-0.001-0.209,0.003-0.312,0.003c-0.103,0.001-0.209-0.004-0.312-0.003v0.005
						c-5.633-0.009-11.731,0.927-17.725,3.395c-8.986,3.7-12.431,6.938-12.431,6.938s-6.36-6.071-16.19-6.36
						c-9.829-0.289-12.721,0.867-12.431,6.649c0.289,5.782,1.156,18.503,4.915,25.441c3.758,6.939,4.626,8.384,7.806,6.939
						c3.18-1.446,10.408-9.83,13.01-13.588s3.18-6.36,3.18-6.36s5.493,12.431,5.782,21.394c0.289,8.962,0,16.768-1.156,22.261
						c-0.21,0.997-0.79,2.67-1.616,4.793c-0.685-0.01-1.37-0.023-2.058-0.023c-6.217,0-12.623-0.623-16.251,5.252
						c-4.836,7.832-5.224,19.969-4.33,28.801c0.531,5.244,0.128,10.764,0.878,15.957c0.217,1.502,0.782,2.935,1.624,4.16
						c-2.794,15.034-4.106,33.544-3.11,48.316c1.672,24.798,5.647,47.075,10.408,61.579c5.396,16.439,7.517,21.394,9.251,23.417
						c1.735,2.024,19.659,3.469,25.73,2.313c1.81-0.345,3.507-0.667,5.027-1.044c0.134,0.033,0.287,0.062,0.424,0.094V291.958z"/>
				</g>
			</g>
		</g>
		<g>
			<circle style="fill:#FF6470;" cx="663.878" cy="138.72" r="102.276"/>
			<g>
				<defs>
					<circle id="SVGID_00000145018153718879971550000008264602668912286351_" cx="663.878" cy="138.72" r="102.276"/>
				</defs>
				<clipPath id="SVGID_00000173874149349707666120000004954993092760279992_">
					<use xlink:href="#SVGID_00000145018153718879971550000008264602668912286351_"  style="overflow:visible;"/>
				</clipPath>
				<g style="clip-path:url(#SVGID_00000173874149349707666120000004954993092760279992_);">
					<g>
						<g>
							<path style="fill:#666666;" d="M623.44,135.227c0,0-9.364-9.364-19.063-5.351c-9.699,4.013-10.702,14.381-3.01,17.056
								c7.692,2.675,16.387,3.679,19.397,1.672C623.775,146.597,623.44,135.227,623.44,135.227z"/>
							<path style="fill:#666666;" d="M704.315,135.227c0,0,9.364-9.364,19.063-5.351c9.699,4.013,10.702,14.381,3.01,17.056
								c-7.692,2.675-16.387,3.679-19.397,1.672C703.98,146.597,704.315,135.227,704.315,135.227z"/>
							<path style="fill:#666666;" d="M777.333,398.092c-4.905-5.797-19.62-4.013-19.62-4.013s9.81-14.269,14.715-28.093
								c4.905-13.823,8.026-45.037-2.23-53.51c-10.256-8.472-30.322,10.256-30.322,10.256c-2.021,3.032-12.839,20.633-23.689,39.221
								c3.825-14.416,7.116-27.277,7.636-30.749c1.338-8.918-3.567-106.127-11.148-119.951c-6.761-12.329-40.814-15.079-48.1-15.529
								l0-0.078c0,0-0.26,0.012-0.698,0.036c-0.438-0.024-0.698-0.036-0.698-0.036l0,0.078c-7.286,0.451-41.338,3.2-48.1,15.529
								c-7.581,13.823-12.486,111.032-11.148,119.951c0.521,3.471,3.811,16.333,7.637,30.749
								c-10.85-18.588-21.668-36.189-23.689-39.221c0,0-20.066-18.728-30.322-10.256c-10.256,8.472-7.135,39.686-2.23,53.51
								c4.905,13.823,14.715,28.093,14.715,28.093s-14.715-1.784-19.62,4.013c-4.905,5.797-0.892,13.377,2.229,13.823
								c2.475,0.354,50.634,0.426,72.483-0.892h38.49h0.505h38.49c21.848,1.318,70.008,1.245,72.483,0.892
								C778.225,411.47,782.238,403.889,777.333,398.092z"/>
							<path style="fill:#333333;" d="M758.604,266.102c-4.905-39.686-32.106-70.9-43.254-107.911
								c-11.148-37.011-7.946-49.09-20.958-75.359c-10.473-21.144-28.945-20.921-33.012-20.597
								c-5.32-0.047-18.733,1.848-28.019,20.597c-13.012,26.269-9.81,38.349-20.958,75.359
								c-11.148,37.011-38.349,68.225-43.254,107.911s6.243,90.074,11.148,108.803c4.905,18.728,11.594,32.106,18.728,33.443
								s10.702-8.472,10.702-8.472s1.338,9.81,8.026,9.81c6.689,0,8.918-9.364,8.918-9.364s-0.543,9.141,6.243,9.81
								c6.786,0.669,8.472-8.472,8.472-8.472s1.338,8.472,9.81,8.026c8.472-0.446,9.81-49.496,10.702-64.657
								c0.892-15.161-4.905-53.955-19.174-80.264c-7.077-13.047-14.715-34.781-6.689-46.821
								c7.318-10.978,24.627-14.018,27.66-14.032c2.551-0.012,20.559,2.842,28.019,14.032c8.026,12.04,0.388,33.773-6.689,46.821
								c-14.269,26.309-20.066,65.103-19.174,80.264c0.892,15.161,2.229,64.211,10.702,64.657c8.472,0.446,9.81-8.026,9.81-8.026
								s1.687,9.141,8.472,8.472c6.786-0.669,6.243-9.81,6.243-9.81s2.23,9.364,8.918,9.364c6.689,0,8.027-9.81,8.027-9.81
								s3.567,9.81,10.702,8.472c7.135-1.338,13.823-14.715,18.728-33.443C752.362,356.176,763.51,305.788,758.604,266.102z"/>
							<g>
								<defs>
									<path id="XMLID_7_" d="M701.444,146.932c-2.988-17.2-8.871-35.785-8.871-35.785s-1.564-0.939-7.341-1.338
										c-4.585-0.317-17.2-1.154-23.117-1.058c-4.392-0.096-15.006,0.741-19.591,1.058c-5.777,0.399-7.341,1.338-7.341,1.338
										s-5.883,18.584-8.871,35.785c-3.428,19.732-4.588,30.099,7.647,43.811c10.215,11.447,24.998,11.196,29.447,11.12
										c4.654-0.08,18.812,2.436,30.391-11.12C705.732,176.769,704.872,166.663,701.444,146.932z"/>
								</defs>
								<use xlink:href="#XMLID_7_"  style="overflow:visible;fill:#8C8C8C;"/>
								<clipPath id="XMLID_00000006675674758611861850000014971308918073696922_">
									<use xlink:href="#XMLID_7_"  style="overflow:visible;"/>
								</clipPath>
								<path style="clip-path:url(#XMLID_00000006675674758611861850000014971308918073696922_);fill:#B2B2B2;" d="
									M620.208,181.156c0,0,2.675-8.695,13.823-15.384c11.148-6.689,19.397-6.689,19.397-6.689s-9.083-5.882-2.608-12.524
									c4.848-4.972,9.965,0.93,11.08,2.714c1.115,1.784,1.338,2.898,1.338,2.898s2.564-7.692,6.8-7.915
									c6.683-0.352,8.353,3.583,7.684,8.265c-0.669,4.682-3.113,5.893-3.113,5.893s12.04,2.898,19.843,8.249
									s10.033,16.722,10.033,16.722s-18.06,23.187-39.24,24.302C644.064,208.802,620.208,181.156,620.208,181.156z"/>
								
									<circle style="clip-path:url(#XMLID_00000006675674758611861850000014971308918073696922_);fill:#333333;" cx="655.546" cy="151.447" r="2.341"/>
								
									<circle style="clip-path:url(#XMLID_00000006675674758611861850000014971308918073696922_);fill:#333333;" cx="670.763" cy="151.279" r="2.341"/>
							</g>
							<rect x="621.434" y="179.581" style="fill:#333333;" width="82.94" height="1.923"/>
						</g>
						<g>
							<circle style="fill:#231F20;" cx="655.91" cy="136.477" r="5.076"/>
							<circle style="fill:#FFFFFF;" cx="655.91" cy="136.477" r="1.596"/>
						</g>
						<g>
							<circle style="fill:#231F20;" cx="670.794" cy="136.477" r="5.076"/>
							<circle style="fill:#FFFFFF;" cx="670.794" cy="136.477" r="1.596"/>
						</g>
					</g>
					<path style="opacity:0.2;fill:#FFFFFF;" d="M663.153,62.162c-0.733,0.007-1.338,0.038-1.772,0.073
						c-5.32-0.047-18.733,1.848-28.019,20.597c-9.338,18.853-10.326,30.398-14.26,49.095c-3.639-2.225-9.124-4.369-14.724-2.051
						c-9.699,4.013-10.702,14.381-3.01,17.056c4.617,1.606,9.587,2.603,13.481,2.714c-0.734,2.702-1.537,5.534-2.444,8.545
						c-11.148,37.011-38.349,68.225-43.254,107.911c-1.763,14.267-1.446,29.913-0.096,44.978c-4.182-1.24-8.313-1.234-11.498,1.397
						c-10.256,8.472-7.135,39.686-2.23,53.51c4.905,13.823,14.715,28.092,14.715,28.092s-14.715-1.784-19.62,4.013
						c-4.905,5.797-0.892,13.377,2.23,13.823c2.475,0.354,50.634,0.427,72.483-0.892h38.018V62.162z"/>
				</g>
			</g>
		</g>
		<g>
			<circle style="fill:#4DCDFF;" cx="400.382" cy="635.456" r="102.276"/>
			<g>
				<defs>
					<circle id="SVGID_00000044145162249602835250000009287714008855695264_" cx="400.382" cy="635.456" r="102.276"/>
				</defs>
				<clipPath id="SVGID_00000170244031291465462290000009017098997142025606_">
					<use xlink:href="#SVGID_00000044145162249602835250000009287714008855695264_"  style="overflow:visible;"/>
				</clipPath>
				<g style="clip-path:url(#SVGID_00000170244031291465462290000009017098997142025606_);">
					<g>
						<g>
							<ellipse style="fill:#B85E26;" cx="441.194" cy="584.504" rx="18.72" ry="19.155"/>
							<g>
								<ellipse style="fill:#FFFFFF;" cx="438.873" cy="587.548" rx="10.64" ry="10.887"/>
							</g>
						</g>
						<g>
							<ellipse style="fill:#B85E26;" cx="357.284" cy="584.504" rx="18.72" ry="19.155"/>
							<ellipse style="fill:#FFFFFF;" cx="359.606" cy="587.548" rx="10.64" ry="10.887"/>
						</g>
						<path style="fill:#FFAC45;" d="M453.216,718.854c-0.456-9.741-1.157-15.939-2.45-25.641
							c-1.194-8.963-6.386-20.443-11.024-27.764c-3.177-5.678-11.887-5.773-19.28-6.44c-5.235-0.473-13.04,0.714-17.084,4.288
							c-1.81,1.6-3.188,3.37-4.139,5.306c-0.951-1.935-2.33-3.706-4.139-5.306c-4.044-3.575-11.849-4.761-17.084-4.288
							c-7.394,0.668-16.103,0.762-19.28,6.44c-4.638,7.321-9.83,18.801-11.024,27.764c-1.292,9.702-1.994,15.9-2.45,25.641
							c-0.277,5.905-0.318,12.253,0.408,18.055c0.525,4.194,0.633,4.333,5.289,4.906c5.63,0.693,11.691,0.813,17.372,0.801
							c9.182-0.021,21.225,1.105,30.907,0.91c9.683,0.195,21.725-0.93,30.907-0.91c5.681,0.013,11.742-0.108,17.372-0.801
							c4.656-0.573,4.764-0.712,5.289-4.906C453.534,731.107,453.493,724.76,453.216,718.854z"/>
						<path style="fill:#FFC57D;" d="M369.959,715.261c0-16.63,16.586-35.381,25.622-42.127c0.731-0.546,1.404-0.836,2.564-0.836
							c1.16,0,1.833,0.29,2.564,0.836c9.037,6.746,25.622,25.497,25.622,42.127c0,3.911,0.232,9.009-4.454,10.247
							c-4.898,1.295-8.403-4.041-11.48-6.749c-0.657,4.756,0.503,9.165-2.566,13.384c-2.104,2.892-6.006,5.221-9.566,5.106
							c-0.001,0.002-0.001,0.004-0.001,0.006c-0.039,0.003-0.079-0.005-0.119-0.003c-0.039-0.002-0.079,0.005-0.119,0.003
							c-0.001-0.002-0.001-0.004-0.001-0.006c-3.559,0.115-7.462-2.213-9.565-5.106c-3.069-4.219-1.91-8.628-2.567-13.384
							c-3.077,2.708-6.582,8.044-11.48,6.749C369.727,724.27,369.959,719.172,369.959,715.261z"/>
						<path id="XMLID_4_" style="fill:#FFAC45;" d="M398.676,572.894c0,0,11.029-1.161,24.67,4.063
							c13.641,5.224,20.316,14.802,24.96,23.509c4.644,8.707,6.095,21.477,6.095,21.477s14.802,5.805,20.316,10.158
							c5.514,4.353,5.514,4.353,5.514,4.353l-16.253,4.644c0,0,6.966,8.417,8.997,11.029c2.032,2.612,2.902,4.644,2.902,4.644
							h-13.641c0,0,6.095,9.578,7.256,14.511s0.871,8.997,0.871,8.997s-13.06-5.224-29.603-4.353
							c-16.543,0.871-26.991,11.609-33.376,14.221s-8.707,2.032-8.707,2.032V572.894z"/>
						<path id="XMLID_6_" style="fill:#FFAC45;" d="M399.803,572.894c0,0-11.029-1.161-24.67,4.063
							c-13.641,5.224-20.316,14.802-24.96,23.509c-4.644,8.707-6.095,21.477-6.095,21.477s-14.802,5.805-20.316,10.158
							s-5.514,4.353-5.514,4.353l16.253,4.644c0,0-6.966,8.417-8.997,11.029c-2.032,2.612-2.902,4.644-2.902,4.644h13.641
							c0,0-6.095,9.578-7.256,14.511s-0.871,8.997-0.871,8.997s13.06-5.224,29.603-4.353c16.543,0.871,26.991,11.609,33.376,14.221
							c6.385,2.612,8.707,2.032,8.707,2.032V572.894z"/>
						<path style="fill:#FFFFFF;" d="M469.492,671.282c-0.941-3.997-5.118-11.04-6.671-13.571
							c-13.469-15.401-41.996-17.693-63.582-16.804c-21.586-0.888-50.113,1.403-63.582,16.804c-1.553,2.531-5.73,9.573-6.671,13.571
							c-1.161,4.934-0.871,8.997-0.871,8.997s13.06-5.224,29.603-4.353c16.543,0.871,26.991,11.609,33.376,14.221
							c4.64,1.898,7.126,2.109,8.143,2.083c1.017,0.026,3.503-0.185,8.143-2.083c6.385-2.612,16.833-13.351,33.376-14.221
							c16.543-0.871,29.603,4.353,29.603,4.353S470.653,676.216,469.492,671.282z"/>
						<g>
							<path d="M439.536,624.729c0.059-2.507,3.983-6.435,5.388-8.508c1.725-2.546,3.749-5.025,5.644-7.391
								c0.222-0.278,0.478-0.65,0.76-0.983c1.288,4.036,2.102,8.007,2.565,10.702c-2.293,1.372-5.46,2.32-7.049,3.098
								C444.469,622.81,441.955,623.743,439.536,624.729z"/>
							<path d="M437.398,611.367c0.255-1.724,8.035-9.459,10.769-11.154c0.045,0.084,0.093,0.169,0.138,0.252
								c0.9,1.687,1.678,3.526,2.351,5.396c-1.869,1.106-4.325,1.878-5.978,2.682C442.565,609.57,439.736,611.273,437.398,611.367z"
								/>
							<path d="M407.377,599.914c-1.596-6.461-2.415-13.248-3.308-19.868c-0.304-2.255-0.517-4.822-0.908-7.233
								c2.692,0.086,6.438,0.415,10.83,1.364c-0.441,4.818-1.767,9.521-2.981,14.206
								C410.019,592.209,409.175,596.397,407.377,599.914z"/>
						</g>
						<g>
							<circle style="fill:#231F20;" cx="418.52" cy="630.739" r="5.345"/>
							<circle style="fill:#FFFFFF;" cx="418.52" cy="630.739" r="1.681"/>
						</g>
						<path style="fill:#231F20;" d="M399.527,651.414c1.718,0,7.483-0.702,8.39,1.069c0.991,1.935-3.31,5.701-4.532,6.625
							c-1.305,0.986-2.259,1.262-3.715,1.899C398.723,658.376,400.123,654.551,399.527,651.414z"/>
						<g>
							<g>
								<path style="fill:#231F20;" d="M399.3,660.243c-0.551,6.063,1.59,12.695,7.506,15.375c5.497,2.49,13.748,1.306,18.475-2.312
									c0.626-0.479-0.167-1.413-0.792-0.934c-4.236,3.242-11.567,4.263-16.59,2.376c-5.802-2.18-7.876-8.591-7.394-14.283
									C400.571,659.686,399.371,659.457,399.3,660.243L399.3,660.243z"/>
							</g>
						</g>
						
							<path style="fill:none;stroke:#B85E26;stroke-width:1.2249;stroke-linecap:round;stroke-linejoin:round;stroke-miterlimit:10;" d="
							M414.853,652.141c17.727-1.682,35.881,1.377,52.078,8.776"/>
						
							<path style="fill:none;stroke:#B85E26;stroke-width:1.2249;stroke-linecap:round;stroke-linejoin:round;stroke-miterlimit:10;" d="
							M414.801,657.962c21.784,2.89,42.96,10.278,61.814,21.566"/>
						
							<path style="fill:none;stroke:#B85E26;stroke-width:1.2249;stroke-linecap:round;stroke-linejoin:round;stroke-miterlimit:10;" d="
							M413.889,662.929c24.188,9.439,45.925,25.08,62.559,45.016"/>
						<g>
							<path d="M358.943,624.729c-0.059-2.507-3.983-6.435-5.388-8.508c-1.725-2.546-3.749-5.025-5.644-7.391
								c-0.222-0.278-0.478-0.65-0.76-0.983c-1.288,4.036-2.102,8.007-2.565,10.702c2.293,1.372,5.46,2.32,7.049,3.098
								C354.01,622.81,356.524,623.743,358.943,624.729z"/>
							<path d="M361.08,611.367c-0.255-1.724-8.035-9.459-10.769-11.154c-0.045,0.084-0.093,0.169-0.138,0.252
								c-0.9,1.687-1.678,3.526-2.351,5.396c1.869,1.106,4.325,1.878,5.978,2.682C355.914,609.57,358.743,611.273,361.08,611.367z"
								/>
							<path d="M391.102,599.914c1.596-6.461,2.415-13.248,3.308-19.868c0.304-2.255,0.517-4.822,0.908-7.233
								c-2.692,0.086-6.438,0.415-10.83,1.364c0.441,4.818,1.767,9.521,2.981,14.206
								C388.459,592.209,389.303,596.397,391.102,599.914z"/>
						</g>
						<g>
							<circle style="fill:#231F20;" cx="380.964" cy="630.739" r="5.345"/>
							<circle style="fill:#FFFFFF;" cx="380.964" cy="630.739" r="1.681"/>
						</g>
						<path style="fill:#231F20;" d="M400.458,651.363c-1.718,0-8.988-0.651-9.895,1.12c-0.991,1.935,3.31,5.701,4.532,6.625
							c1.305,0.986,2.988,1.647,4.445,2.284C400.484,658.761,399.861,654.5,400.458,651.363z"/>
						<g>
							<g>
								<path style="fill:#231F20;" d="M397.966,660.407c0.518,5.729-1.597,12.19-7.437,14.362
									c-5.038,1.873-12.353,0.807-16.585-2.432c-0.627-0.48-1.328,0.525-0.703,1.003c4.712,3.606,13.021,4.778,18.481,2.256
									c5.871-2.712,7.978-9.251,7.464-15.296C399.12,659.515,397.895,659.621,397.966,660.407L397.966,660.407z"/>
							</g>
						</g>
						
							<path style="fill:none;stroke:#B85E26;stroke-width:1.2249;stroke-linecap:round;stroke-linejoin:round;stroke-miterlimit:10;" d="
							M383.626,652.141c-17.727-1.682-35.881,1.377-52.078,8.776"/>
						
							<path style="fill:none;stroke:#B85E26;stroke-width:1.2249;stroke-linecap:round;stroke-linejoin:round;stroke-miterlimit:10;" d="
							M383.677,657.962c-21.784,2.89-42.96,10.278-61.814,21.566"/>
						
							<path style="fill:none;stroke:#B85E26;stroke-width:1.2249;stroke-linecap:round;stroke-linejoin:round;stroke-miterlimit:10;" d="
							M384.59,662.929c-24.188,9.439-45.925,25.08-62.559,45.016"/>
					</g>
					<path style="opacity:0.2;fill:#FFFFFF;" d="M398.748,572.825c-1.054-0.047-2.865-0.075-5.245,0.079
						c-0.176,0.011-0.349,0.022-0.53,0.036c-0.278,0.021-0.562,0.045-0.854,0.071c-0.206,0.018-0.417,0.039-0.631,0.061
						c-0.303,0.03-0.603,0.06-0.919,0.097c-0.204,0.024-0.42,0.053-0.629,0.08c-0.573,0.072-1.163,0.155-1.773,0.25
						c-0.245,0.038-0.489,0.076-0.74,0.118c-0.346,0.058-0.697,0.12-1.054,0.186c-0.265,0.049-0.535,0.103-0.806,0.156
						c-3.172,0.628-6.698,1.568-10.435,2.999c-0.189,0.073-0.364,0.155-0.551,0.229c-2.81-6.947-9.493-11.838-17.298-11.838
						c-10.339,0-18.72,8.576-18.72,19.155c0,7.718,4.47,14.352,10.897,17.386c-0.188,0.395-0.37,0.795-0.546,1.201
						c-0.002,0.005-0.005,0.011-0.007,0.017c-0.389,0.9-0.75,1.823-1.085,2.753c0,0-0.001,0.002-0.001,0.002v0
						c-0.237,0.66-0.461,1.323-0.672,1.985l0,0.001c-0.805,2.521-1.424,5.016-1.888,7.192c0,0.002-0.001,0.003-0.001,0.005
						c-0.091,0.428-0.176,0.842-0.256,1.243c-0.003,0.016-0.006,0.032-0.01,0.049c-0.654,3.308-0.917,5.607-0.917,5.607
						s-14.802,5.805-20.316,10.158c-5.515,4.354-5.515,4.354-5.515,4.354l16.253,4.644c0,0-6.966,8.417-8.997,11.029
						c-2.032,2.612-2.902,4.644-2.902,4.644h13.641c0,0-0.239,0.377-0.625,1.006c-0.094,0.154-0.196,0.32-0.307,0.504
						c-0.047,0.078-0.099,0.164-0.149,0.247c-0.045,0.075-0.089,0.147-0.136,0.226c-1.253,0.513-2.5,1.043-3.733,1.607
						c-0.307,0.141-0.443,0.504-0.303,0.811c0.103,0.226,0.325,0.358,0.557,0.358c0.085,0,0.172-0.018,0.255-0.056
						c0.724-0.331,1.455-0.642,2.186-0.955c-0.067,0.116-0.135,0.235-0.203,0.354c-0.048,0.084-0.094,0.163-0.143,0.249
						c-0.185,0.325-0.373,0.659-0.564,1.003c-0.045,0.081-0.09,0.165-0.136,0.248c-0.147,0.266-0.294,0.535-0.441,0.808
						c-0.067,0.124-0.133,0.248-0.2,0.374c-0.129,0.242-0.256,0.484-0.384,0.729c-0.069,0.133-0.138,0.265-0.206,0.399
						c-0.136,0.266-0.27,0.532-0.403,0.799c-0.053,0.106-0.106,0.212-0.158,0.318c-0.182,0.372-0.359,0.742-0.529,1.11
						c-0.025,0.053-0.047,0.104-0.071,0.157c-0.142,0.311-0.279,0.618-0.409,0.921c-0.05,0.116-0.095,0.228-0.143,0.343
						c-0.1,0.241-0.196,0.478-0.287,0.712c-0.047,0.121-0.093,0.241-0.137,0.36c-0.086,0.232-0.164,0.456-0.237,0.677
						c-0.034,0.102-0.07,0.206-0.101,0.305c-0.097,0.312-0.184,0.615-0.251,0.899c-0.145,0.617-0.267,1.22-0.371,1.803
						c-0.13,0.736-0.227,1.436-0.303,2.096c-2.288,1.222-4.545,2.493-6.764,3.821c-0.291,0.174-0.385,0.55-0.211,0.84
						c0.115,0.192,0.317,0.298,0.525,0.298c0.108,0,0.217-0.028,0.315-0.087c1.969-1.179,3.972-2.306,5.996-3.401
						c-0.008,0.112-0.018,0.229-0.025,0.337c-0.014,0.223-0.025,0.436-0.034,0.64c-0.018,0.408-0.027,0.778-0.031,1.103
						c-0.002,0.162-0.002,0.314-0.001,0.453c0.004,0.696,0.032,1.093,0.032,1.093s2.5-1,6.697-2.052
						c0.3-0.075,0.608-0.151,0.925-0.226c0.634-0.151,1.301-0.301,1.999-0.448c2.444-0.515,5.27-0.993,8.377-1.314
						c0.888-0.092,1.798-0.171,2.73-0.234c1.397-0.095,2.84-0.156,4.322-0.172c0.007,0,0.014,0,0.022,0
						c-0.638,1.404-1.248,2.838-1.816,4.285c-11.058,7.793-21.111,17.009-29.812,27.436c-0.216,0.26-0.182,0.646,0.078,0.862
						c0.115,0.096,0.254,0.142,0.392,0.142c0.175,0,0.349-0.075,0.47-0.22c8.245-9.881,17.708-18.674,28.099-26.181
						c-1.379,3.804-2.429,7.615-2.888,11.055c-1.292,9.702-1.994,15.9-2.45,25.641c-0.277,5.905-0.318,12.253,0.408,18.055
						c0.525,4.194,0.633,4.333,5.289,4.906c5.63,0.693,11.691,0.813,17.372,0.801c9.031-0.02,20.818,1.062,30.416,0.912V572.825z"/>
				</g>
			</g>
		</g>
		<g>
			<circle style="fill:#183759;" cx="400.382" cy="387.088" r="102.276"/>
			<text transform="matrix(1 0 0 1 341.6338 347.3057)"><tspan x="0" y="0" style="fill:#FFFFFF; font-family:'FrenteH1-Regular'; font-size:38.348px;">flat design</tspan><tspan x="-7.395" y="60.535" style="fill:#FFFFFF; font-family:'FrenteH1-Regular'; font-size:66.078px;">ANIMALS</tspan><tspan x="-8.521" y="105.64" style="fill:#FFFFFF; font-family:'FrenteH1-Regular'; font-size:45.9186px;">AVATAR SET</tspan></text>
			<circle style="fill:#FFFFFF;" cx="318.705" cy="378.712" r="6.737"/>
			<circle style="fill:#FFFFFF;" cx="482.837" cy="378.712" r="6.737"/>
		</g>
		<g>
			<circle style="fill:#FFCA3C;" cx="400.382" cy="138.72" r="102.276"/>
			<g>
				<defs>
					<circle id="SVGID_00000159469571559669846090000007343507644734932098_" cx="400.382" cy="138.72" r="102.276"/>
				</defs>
				<clipPath id="SVGID_00000017476843133944676270000004355798595902922397_">
					<use xlink:href="#SVGID_00000159469571559669846090000007343507644734932098_"  style="overflow:visible;"/>
				</clipPath>
				<g style="clip-path:url(#SVGID_00000017476843133944676270000004355798595902922397_);">
					<g>
						<path style="fill:#BA9B89;" d="M447.966,225.457c0.006-13.336-0.076-22.364-1.352-35.612c-1.395-14.484-3.1-35.47-9.01-49.106
							c-14.67-10.596-34.643,1.573-37.288,13.022c-0.22,0.951-0.414,1.944-0.594,2.958c-0.348-1.012-0.656-2.005-0.877-2.958
							c-2.645-11.45-22.618-23.619-37.288-13.022c-5.91,13.636-7.616,34.623-9.01,49.106c-1.276,13.248-1.358,22.276-1.352,35.612
							c0.002,4.47-0.798,10.017,0.467,14.153c1.033,3.375,0.206,2.749,4.017,3.859c4.619,1.346,9.739,2.703,14.462,3.69
							c5.751,1.202,11.327,0.605,17.072,0.352c1.124-0.049,10.11,0.009,17.35-0.168c1.618,0.956,5.563,0.087,7.384,0.168
							c5.745,0.253,11.321,0.85,17.072-0.352c4.723-0.987,9.843-2.344,14.462-3.69c3.811-1.11,2.984-0.484,4.017-3.859
							C448.765,235.474,447.964,229.927,447.966,225.457z"/>
						<path style="opacity:0.5;fill:#BA9B89;" d="M447.966,225.457c0.006-13.336-0.076-22.364-1.352-35.612
							c-1.395-14.484-3.1-35.47-9.01-49.106c-14.67-10.596-34.643,1.573-37.288,13.022c-0.22,0.951-0.414,1.944-0.594,2.958
							c-0.348-1.012-0.656-2.005-0.877-2.958c-2.645-11.45-22.618-23.619-37.288-13.022c-5.91,13.636-7.616,34.623-9.01,49.106
							c-1.276,13.248-1.358,22.276-1.352,35.612c0.002,4.47-0.798,10.017,0.467,14.153c1.033,3.375,0.206,2.749,4.017,3.859
							c4.619,1.346,9.739,2.703,14.462,3.69c5.751,1.202,11.327,0.605,17.072,0.352c1.124-0.049,10.11,0.009,17.35-0.168
							c1.618,0.956,5.563,0.087,7.384,0.168c5.745,0.253,11.321,0.85,17.072-0.352c4.723-0.987,9.843-2.344,14.462-3.69
							c3.811-1.11,2.984-0.484,4.017-3.859C448.765,235.474,447.964,229.927,447.966,225.457z"/>
						<g>
							<path style="fill:#8C593B;" d="M383.055,95.932c-0.471-2.353-2.787-4.293-4.476-5.84c-1.98-1.812-4.124-3.485-6.165-5.253
								c-1.648-1.428-3.287-2.88-4.935-4.307c-1.257-1.088-2.692-1.858-3.968-2.938c-2.384-2.018-5.838-3.882-9.066-3.941
								c-2.027-0.037-2.568,2.715-2.885,4.45c-0.605,3.312-0.232,6.688,0.281,9.996c0.586,3.774,0.606,7.557,1.331,11.302
								c0.382,1.973,0.714,4.506,2.02,6.115c1.759-1.202,3.516-1.998,5.485-2.884c2.518-1.133,5.616-2.39,8.271-3.137
								c2.696-0.758,5.299-1.48,7.898-2.522C378.862,96.166,380.702,95.488,383.055,95.932z"/>
							<path style="fill:#E38383;" d="M357.655,102.072c-1.131-5.959-4.365-13.803-4.08-19.915c0.08-1.716,0.363-3.395,2.166-3.568
								c1.854-0.178,3.093,0.758,4.411,1.883c1.843,1.573,3.787,3.084,5.581,4.705c1.71,1.544,3.316,3.292,4.731,5.106
								c0.601,0.77,2.114,2.156,2.134,3.164c-2.622,0.689-5.544,2.363-7.89,3.692c-1.676,0.949-1.66,2.259-3.344,3.182
								C360.577,100.751,358.926,102.406,357.655,102.072z"/>
						</g>
						<g>
							<path style="fill:#8C593B;" d="M419.163,95.932c0.471-2.353,2.787-4.293,4.476-5.84c1.98-1.812,4.124-3.485,6.165-5.253
								c1.648-1.428,3.287-2.88,4.935-4.307c1.257-1.088,2.692-1.858,3.968-2.938c2.384-2.018,5.838-3.882,9.066-3.941
								c2.027-0.037,2.568,2.715,2.885,4.45c0.605,3.312,0.232,6.688-0.281,9.996c-0.586,3.774-0.606,7.557-1.331,11.302
								c-0.382,1.973-0.714,4.506-2.02,6.115c-1.759-1.202-3.516-1.998-5.485-2.884c-2.518-1.133-5.616-2.39-8.271-3.137
								c-2.696-0.758-5.299-1.48-7.898-2.522C423.356,96.166,421.516,95.488,419.163,95.932z"/>
							<path style="fill:#E38383;" d="M444.562,102.072c1.131-5.959,4.365-13.803,4.08-19.915c-0.08-1.716-0.363-3.395-2.166-3.568
								c-1.854-0.178-3.093,0.758-4.411,1.883c-1.843,1.573-3.787,3.084-5.581,4.705c-1.71,1.544-3.316,3.292-4.731,5.106
								c-0.601,0.77-2.114,2.156-2.134,3.164c2.622,0.689,5.544,2.363,7.89,3.692c1.676,0.949,1.66,2.259,3.344,3.182
								C441.641,100.751,443.292,102.406,444.562,102.072z"/>
						</g>
						<path id="XMLID_5_" style="fill:#BA9B89;" d="M466.119,124.641c0.172-3.275-6.327-5.507-7.765-8.319
							c2.401-1.547,5.882-0.492,8.089-2.319c-2.189-3.885-7.468-7.207-11.358-9.575c-8.734-5.317-33.833-16.625-54.703-16.977
							c-19.906-0.336-45.969,11.66-54.703,16.977c-3.889,2.368-9.169,5.689-11.358,9.575c2.207,1.828,5.689,0.773,8.089,2.319
							c-1.439,2.812-7.938,5.044-7.765,8.319c4.074,1.462,8.439,0.262,4.971,4.988c-2.382,3.246-4.025,4.691,0.519,6.262
							c4.337,1.499,3.732,1.315,3.669,5.552c-0.042,2.813,0.149,3.72,2.476,5.392c3.743,2.69,8.22,5.516,12.487,7.571
							c2.43,1.17,5.107,2.266,7.16,4.081c4.41,3.897,9.391,10.444,14.819,13.856c5.321,3.345,12.481,6.015,19.637,6.015
							s12.154-1.865,17.475-5.21c5.428-3.412,12.57-10.763,16.98-14.66c2.053-1.814,4.73-2.911,7.16-4.081
							c4.267-2.055,8.743-4.881,12.487-7.571c2.327-1.672,2.517-2.579,2.475-5.392c-0.063-4.237-0.667-4.053,3.67-5.552
							c4.544-1.57,2.9-3.016,0.519-6.262C457.68,124.903,462.044,126.103,466.119,124.641z"/>
						<path style="fill:#8C593B;" d="M410.421,124.625c3.869-2.247,6.674-3.555,11.236-3.83c2.643-0.159,5.554-0.018,8.046-1.018
							c3.23-1.297,2.497-2.913-0.742-3.067c-2.929-0.139-5.562,1.553-8.242,2.591c2.039-2.166,5.313-6.427,5.245-9.446
							c-4.553-0.157-8.332,4.499-11.164,7.555c0.024-2.697,1.596-6.97-0.091-9.354C409.797,110.363,410.421,120.007,410.421,124.625
							z"/>
						<path style="fill:#8C593B;" d="M390.343,124.625c-3.87-2.247-6.674-3.555-11.236-3.83c-2.643-0.159-5.554-0.018-8.046-1.018
							c-3.23-1.297-2.497-2.913,0.742-3.067c2.929-0.139,5.562,1.553,8.242,2.591c-2.039-2.166-5.313-6.427-5.245-9.446
							c4.553-0.157,8.332,4.499,11.164,7.555c-0.024-2.697-1.596-6.97,0.091-9.354C390.966,110.363,390.343,120.007,390.343,124.625
							z"/>
						<g>
							<circle style="fill:#231F20;" cx="383.972" cy="133.703" r="5.897"/>
							<circle style="fill:#FFFFFF;" cx="383.972" cy="133.703" r="1.855"/>
						</g>
						<g>
							<circle style="fill:#231F20;" cx="416.409" cy="133.703" r="5.897"/>
							<circle style="fill:#FFFFFF;" cx="416.409" cy="133.703" r="1.855"/>
						</g>
						<path style="fill:#E1D9CB;" d="M400.078,155.605c-1.133-2.362-5.69-4.777-7.999-5.944c-2.635-1.332-5.499-1.857-8.45-1.715
							c-4.436,0.213-9.578,3.249-10.982,7.659c-1.498,4.703-0.683,9.86,3.548,13.059c5.074,3.836,11.982,3.383,16.9,1.696
							c2.942-1.009,6.078-3.342,7.321-6.307C401.489,161.491,402.13,156.455,400.078,155.605z"/>
						<path style="fill:#E1D9CB;" d="M400.329,155.605c1.133-2.362,5.69-4.777,7.999-5.944c2.635-1.332,5.499-1.857,8.45-1.715
							c4.436,0.213,9.578,3.249,10.982,7.659c1.498,4.703,0.683,9.86-3.548,13.059c-5.074,3.836-11.982,3.383-16.9,1.696
							c-2.942-1.009-6.078-3.342-7.321-6.307C398.918,161.491,398.277,156.455,400.329,155.605z"/>
						<path style="fill:#E38383;" d="M400.599,161.952c-0.536-4.085-2.652-2.292-5.288-3.076c-2.84-0.845-2.381-4.145,0.372-4.768
							c2.53-0.573,5.568-0.266,8.187-0.235c2.292,0.027,6.273,2.467,2.539,4.736C404.281,159.901,400.309,158.519,400.599,161.952z"
							/>
					</g>
					<path style="opacity:0.2;fill:#FFFFFF;" d="M400.719,87.464c-0.112-0.002-0.226-0.011-0.337-0.013
						c-6.693-0.113-14.08,1.171-21.272,3.124c-0.18-0.164-0.36-0.327-0.531-0.482c-1.98-1.812-4.124-3.485-6.165-5.253
						c-1.648-1.428-3.287-2.88-4.935-4.307c-1.257-1.088-2.692-1.858-3.968-2.938c-2.384-2.018-5.838-3.882-9.066-3.941
						c-2.027-0.037-2.568,2.715-2.885,4.45c-0.605,3.312-0.232,6.688,0.281,9.996c0.586,3.773,0.606,7.556,1.331,11.302
						c0.058,0.297,0.115,0.609,0.174,0.927c-3.183,1.545-5.817,2.973-7.667,4.099c-3.89,2.368-9.169,5.689-11.358,9.575
						c2.207,1.828,5.689,0.773,8.089,2.319c-1.439,2.812-7.937,5.044-7.765,8.319c4.074,1.462,8.439,0.262,4.971,4.988
						c-2.382,3.246-4.025,4.691,0.519,6.262c4.337,1.499,3.732,1.315,3.67,5.552c-0.042,2.813,0.149,3.72,2.475,5.392
						c3.368,2.42,7.328,4.946,11.197,6.925c-2.758,11.969-3.927,25.695-4.928,36.085c-1.276,13.248-1.358,22.276-1.352,35.612
						c0.002,4.47-0.798,10.017,0.467,14.153c1.033,3.375,0.206,2.749,4.017,3.859c4.619,1.346,9.739,2.703,14.462,3.69
						c5.751,1.202,11.327,0.605,17.072,0.352c0.93-0.041,7.248-0.008,13.504-0.096V87.464z"/>
				</g>
			</g>
		</g>
		<g>
			<circle style="fill:#FF6470;" cx="136.886" cy="635.456" r="102.276"/>
			<circle style="fill:#FF6470;" cx="136.886" cy="635.456" r="102.276"/>
			<g>
				<defs>
					<circle id="SVGID_00000157281190771018058320000017907021211855607730_" cx="136.886" cy="635.456" r="102.276"/>
				</defs>
				<clipPath id="SVGID_00000173140357695900223310000018020047950852657822_">
					<use xlink:href="#SVGID_00000157281190771018058320000017907021211855607730_"  style="overflow:visible;"/>
				</clipPath>
				<g style="clip-path:url(#SVGID_00000173140357695900223310000018020047950852657822_);">
					<g>
						<path style="fill:#BEB3B8;" d="M195.139,711.937c-1.008-7.086-2.058-13.568-4.99-20.367
							c-3.223-7.472-9.465-22.074-17.024-25.461c-5.304,3.112-11.772,3.636-17.656,5.401c-5.354,1.606-14.897,2.99-19.407,7.549
							c-4.51-4.559-14.053-5.943-19.407-7.549c-5.883-1.765-12.352-2.289-17.656-5.401c-7.56,3.388-13.802,17.989-17.024,25.461
							c-2.932,6.799-3.982,13.281-4.99,20.367c-0.687,4.83-3.354,12.863,0.772,16.739c3.787,3.557,9.041,11.339,13.808,11.899
							c6.588,0.774,8.882,9.437,15.515,9.799c7.736,0.422,21.114,2.244,28.58,1.633c7.466,0.611,20.027-1.211,27.764-1.633
							c6.633-0.362,15.459-4.125,22.048-4.899c4.767-0.56,8.462-7.058,12.249-10.615
							C201.846,730.983,195.826,716.767,195.139,711.937z"/>
						<g>
							<defs>
								<path id="XMLID_9_" d="M128.615,612.08c-5.038-10.474-11.678-22.544-20.385-31.061
									c-4.328-4.233-16.384-13.388-22.938-12.207c-6.742,1.215,2.799,16.604,4.899,20.74c4.862,9.576,10.463,18.338,17.68,26.205
									c2.943,3.209,5.743,8.956,10.066,6.094C120.624,620.073,125.498,614.857,128.615,612.08z"/>
							</defs>
							<use xlink:href="#XMLID_9_"  style="overflow:visible;fill:#E0DBDD;"/>
							<clipPath id="XMLID_00000045602211333762548000000005442565341537623189_">
								<use xlink:href="#XMLID_9_"  style="overflow:visible;"/>
							</clipPath>
							<path style="clip-path:url(#XMLID_00000045602211333762548000000005442565341537623189_);fill:#F0BBBB;" d="M79.724,575.633
								c13.015,4.243,24.346,16.384,29.896,28.52c2.217,4.848,3.844,9.687,3.934,14.948c0.047,2.74-0.135,5.9-2.045,8.064
								c-5.072,5.748-10.278-3.684-13.37-7.53c-7.021-8.734-11.493-18.776-16.218-28.81
								C80.019,586.785,77.034,580.058,79.724,575.633z"/>
						</g>
						<path style="fill:#C9C0C4;" d="M155.239,678.055c-0.536-3.015-2.346-5.733-4.02-8.224
							c-2.483-3.693-9.083-15.887-14.533-13.242c-0.226,0.11-0.426,0.246-0.624,0.386c-0.197-0.14-0.398-0.277-0.624-0.386
							c-5.45-2.646-12.05,9.549-14.533,13.242c-1.674,2.491-3.484,5.208-4.02,8.224c-0.25,1.407,0.142,2.869-0.578,3.658
							c0.901,3.212,6.276,5.823,9.237,6.497c2.17,0.494,7.341,1.524,10.517,1.524s8.348-1.031,10.517-1.524
							c2.961-0.674,8.336-3.285,9.237-6.497C155.097,680.924,155.489,679.462,155.239,678.055z"/>
						<path style="fill:#FFFFFF;" d="M130.487,667.951c-0.545,2.788-1.24,5.578-1.774,8.377c-0.411,2.155-1.018,4.783-0.076,6.85
							c0.509,1.116,0.823,1.375,2.042,1.469c0.844,0.065,1.692,0.079,2.532,0.155c0.754,0.068,1.631,0.353,2.214-0.223
							c0.966-0.954,0.878-3.143,0.98-4.387c0.276-3.356,0.159-6.74,0.357-10.1c0.082-1.388,0.09-2.695-1.551-3.171
							C133.831,666.521,131.436,666.599,130.487,667.951z"/>
						<path style="fill:#FFFFFF;" d="M136.191,667.464c0,1.8,0.259,3.567,0.278,5.358c0.017,1.584,0.011,3.112,0.279,4.677
							c0.199,1.165,0.364,2.331,0.556,3.497c0.107,0.646,0.153,1.639,0.611,2.14c0.785,0.859,2.839,0.526,3.808,0.251
							c0.908-0.258,1.558-0.565,1.771-1.446c0.274-1.131,0.046-2.289-0.064-3.419c-0.15-1.531-0.396-3.069-0.703-4.57
							c-0.307-1.5-0.592-3.015-1.059-4.478c-0.213-0.668-0.471-1.549-1.04-2.014C139.713,666.711,137.451,666.622,136.191,667.464z"
							/>
						<g>
							<defs>
								<path id="XMLID_8_" d="M143.509,612.08c5.038-10.474,11.678-22.544,20.385-31.061c4.328-4.233,16.384-13.388,22.938-12.207
									c6.742,1.215-2.799,16.604-4.899,20.74c-4.862,9.576-10.463,18.338-17.68,26.205c-2.943,3.209-5.743,8.956-10.066,6.094
									C151.5,620.073,146.626,614.857,143.509,612.08z"/>
							</defs>
							<use xlink:href="#XMLID_8_"  style="overflow:visible;fill:#E0DBDD;"/>
							<clipPath id="XMLID_00000008142658271703124720000011547439954824514723_">
								<use xlink:href="#XMLID_8_"  style="overflow:visible;"/>
							</clipPath>
							<path style="clip-path:url(#XMLID_00000008142658271703124720000011547439954824514723_);fill:#F0BBBB;" d="M192.4,575.633
								c-13.015,4.243-24.346,16.384-29.896,28.52c-2.217,4.848-3.844,9.687-3.934,14.948c-0.047,2.74,0.135,5.9,2.045,8.064
								c5.072,5.748,10.278-3.684,13.37-7.53c7.021-8.734,11.493-18.776,16.218-28.81C192.105,586.785,195.09,580.058,192.4,575.633
								z"/>
						</g>
						<path style="fill:#D9D2D5;" d="M177.248,656.425c-2.206-6.462-7.595-10.709-11.815-16.077
							c-4.565-5.806-2.816-14.017-6.317-20.374c-2.42-4.394-5.729-8.933-10.38-10.962c-3.519-1.535-7.159-2.065-10.911-2.232
							c-0.005-0.023-0.008-0.048-0.012-0.07c-0.586,0-1.169,0.005-1.75,0.016c-0.581-0.01-1.164-0.016-1.75-0.016
							c-0.005,0.022-0.008,0.048-0.012,0.07c-3.751,0.166-7.392,0.696-10.911,2.232c-4.651,2.029-7.96,6.568-10.38,10.962
							c-3.501,6.358-1.312,14.762-5.877,20.568c-4.221,5.367-9.416,8.84-11.622,15.302c-1.975,5.788-2.27,13.414,1.356,18.401
							c4.122,5.67,10.288,9.169,16.885,9.886c11.16,1.213,19.145-6.34,22.312-15.983c3.167,9.643,11.152,17.196,22.312,15.983
							c6.596-0.717,12.427-4.603,16.55-10.273C178.55,668.871,179.224,662.212,177.248,656.425z"/>
						<g>
							<circle style="fill:#231F20;" cx="119.692" cy="638.43" r="5.006"/>
							<circle style="fill:#FFFFFF;" cx="119.692" cy="638.43" r="1.574"/>
						</g>
						<g>
							<circle style="fill:#231F20;" cx="151.782" cy="638.43" r="5.006"/>
							<circle style="fill:#FFFFFF;" cx="151.782" cy="638.43" r="1.574"/>
						</g>
						<path style="fill:#E38383;" d="M136.173,663.355c-0.027-1.551-1.751-2.764-2.888-3.526c-0.76-0.509-1.62-0.811-2.345-1.378
							c-0.42-0.329-1.41-1.275-1.145-1.867c0.409-0.917,3.048-0.638,3.802-0.638c1.632,0,3.297-0.095,4.91-0.033
							c0.964,0.037,4.865-0.406,4.107,1.539c-0.659,1.692-3.301,2.32-4.628,3.316c-0.574,0.431-1.125,0.927-1.42,1.588
							C136.384,662.768,136.421,663.401,136.173,663.355z"/>
					</g>
					<path style="opacity:0.2;fill:#FFFFFF;" d="M138.11,606.798c-0.096-0.005-0.19-0.014-0.286-0.018
						c-0.004-0.023-0.008-0.048-0.012-0.07c-0.586,0-1.169,0.005-1.75,0.016c-0.581-0.01-1.164-0.016-1.75-0.016
						c-0.005,0.022-0.008,0.048-0.012,0.07c-2.638,0.117-5.22,0.422-7.744,1.122c-4.75-9.391-10.756-19.479-18.325-26.883
						c-4.328-4.233-16.384-13.388-22.938-12.207c-3.205,0.578-2.728,4.36-1.122,8.612c0.658,2.183,5.646,11.234,7.548,15.274
						c4.725,10.034,16.306,23.655,20.67,28.555c-2.067,5.053-1.455,14.622-5.257,19.29c-4.312,5.294-9.416,8.84-11.622,15.302
						c-1.402,4.107-1.948,9.137-0.857,13.496c-5.578,5.708-10.097,16.248-12.677,22.231c-2.932,6.799-3.982,13.281-4.99,20.367
						c-0.687,4.83-3.354,12.863,0.772,16.739c3.787,3.557,9.041,11.339,13.808,11.899c6.588,0.774,8.882,9.437,15.515,9.799
						c7.736,0.422,21.114,2.244,28.58,1.633c0.763,0.063,1.591,0.094,2.45,0.11V606.798z"/>
				</g>
			</g>
		</g>
		<g>
			<circle style="fill:#BBD64A;" cx="136.886" cy="387.088" r="102.276"/>
			<g>
				<defs>
					<circle id="SVGID_00000108991980247405267500000016777758951503914115_" cx="136.886" cy="387.088" r="102.276"/>
				</defs>
				<clipPath id="SVGID_00000154424076486586571880000006542020978413800363_">
					<use xlink:href="#SVGID_00000108991980247405267500000016777758951503914115_"  style="overflow:visible;"/>
				</clipPath>
				<g style="clip-path:url(#SVGID_00000154424076486586571880000006542020978413800363_);">
					<g>
						<path style="fill:#FFAC45;" d="M185.396,467.709c-0.862-17.112-5.504-33.295-13.472-48.586
							c-9.269-0.814-28.208-4.591-35.076,3.371c-6.867-7.962-25.807-4.185-35.076-3.371c-7.968,15.291-12.61,31.474-13.472,48.586
							c-0.225,4.466-1.289,11.671-0.001,15.923c1.488,4.914,8.969,4.319,13.483,6.318c5.23,2.315,9.866,4.433,15.636,5.443
							c4.696,0.822,14.443,1.482,19.431-0.992c4.988,2.474,14.735,1.814,19.431,0.992c5.77-1.01,10.406-3.127,15.636-5.443
							c4.514-1.998,11.995-1.404,13.483-6.318C186.685,479.381,185.621,472.175,185.396,467.709z"/>
						<ellipse style="fill:#B85E26;" cx="137.04" cy="387.575" rx="80" ry="79.382"/>
						<g>
							<circle style="fill:#FFAC45;" cx="104.594" cy="349.126" r="11.762"/>
							<circle style="fill:#FFD5A2;" cx="104.594" cy="349.126" r="7.165"/>
						</g>
						<path style="fill:#FFAC45;" d="M149.983,415.796c-2.742-3.228-6.285-6.348-9.466-9.155c-1.507-1.33-2.561-1.929-3.669-0.432
							c-1.108-1.497-2.162-0.898-3.669,0.432c-3.182,2.808-6.724,5.927-9.466,9.155c-2.202,2.592-7.873,7.758-6.425,10.88
							c0.555,3.661,5.836,6.208,8.982,7.196c3.309,1.039,6.988,1.457,10.578,1.395c3.59,0.063,7.269-0.355,10.578-1.395
							c3.146-0.988,8.427-3.535,8.982-7.196C157.856,423.554,152.185,418.388,149.983,415.796z"/>
						<path style="fill:#FFD5A2;" d="M137.804,341.446c-7.855,0.152-17.186-1.681-24.188,1.982
							c-5.085,2.661-8.793,9.198-11.05,14.172c-4.428,9.758-6.901,22.795-9.164,33.147c-2.971,13.594-6.173,34.062,12.249,37.052
							c5.679,0.922,12.861,2.143,19.598-0.919c5.335-2.425,9.896-6.596,11.644-12.249c1.25-4.043,0.915-9.085,0.911-13.405
							c-0.008-9.692-0.089-19.475-0.866-29.096C136.101,361.785,137.733,351.877,137.804,341.446z"/>
						<g>
							<circle style="fill:#FFAC45;" cx="169.102" cy="349.126" r="11.762"/>
							<circle style="fill:#FFD5A2;" cx="169.102" cy="349.126" r="7.165"/>
						</g>
						<path style="fill:#FFD5A2;" d="M135.892,341.446c7.855,0.152,17.186-1.681,24.188,1.982c5.085,2.661,8.793,9.198,11.05,14.172
							c4.428,9.758,6.901,22.795,9.164,33.147c2.971,13.594,6.173,34.062-12.249,37.052c-5.679,0.922-12.861,2.143-19.598-0.919
							c-5.335-2.425-9.896-6.596-11.644-12.249c-1.25-4.043-0.915-9.085-0.911-13.405c0.008-9.692,0.089-19.475,0.866-29.096
							C137.595,361.785,135.963,351.877,135.892,341.446z"/>
						<path style="fill:#FFAC45;" d="M171.13,357.6c-2.257-4.974-5.965-11.511-11.05-14.172c-6.46-3.38-14.898-2.084-22.335-1.982
							c-0.296,0.005-0.597,0.004-0.897,0.004c-0.3,0-0.601,0.001-0.897-0.004c-7.436-0.102-15.875-1.398-22.335,1.982
							c-5.085,2.661-8.793,9.198-11.05,14.172c-0.56,1.234-1.088,2.521-1.589,3.848c3.064,0.44,6.002,1.737,8.656,3.27
							c7.934,4.586,12.574,9.959,16.304,18.38c3.78,8.535,4.637,17.418,7.327,25.976c0.894,0.15,1.788,0.342,2.692,0.489
							c0.004,0.066,0.004,0.134,0.009,0.2c0.296-0.012,0.59-0.044,0.883-0.077c0.293,0.033,0.586,0.065,0.883,0.077
							c0.005-0.066,0.005-0.134,0.009-0.2c0.904-0.147,1.798-0.339,2.692-0.489c2.69-8.559,3.546-17.441,7.327-25.976
							c3.73-8.421,8.37-13.794,16.304-18.38c2.654-1.534,5.592-2.83,8.656-3.27C172.218,360.121,171.69,358.834,171.13,357.6z"/>
						<g>
							<g>
								<path style="fill:#1D1D1B;" d="M125.265,411.557c-18.427,1.173-34.67,10.608-50.17,19.842
									c-0.677,0.403-0.061,1.462,0.618,1.058c15.299-9.115,31.359-18.517,49.552-19.675
									C126.048,412.732,126.054,411.507,125.265,411.557L125.265,411.557z"/>
							</g>
						</g>
						<g>
							<g>
								<path style="fill:#1D1D1B;" d="M124.915,406.577c-15.872-2.038-31.97-0.826-47.362,3.545
									c-0.757,0.215-0.435,1.397,0.326,1.181c15.296-4.343,31.267-5.525,47.037-3.501
									C125.694,407.902,125.687,406.676,124.915,406.577L124.915,406.577z"/>
							</g>
						</g>
						<g>
							<g>
								<path style="fill:#1D1D1B;" d="M127.764,415.138c-13.688,8.055-26.063,18.133-36.716,29.913
									c-0.528,0.583,0.336,1.452,0.866,0.866c10.587-11.706,22.865-21.716,36.468-29.721
									C129.061,415.796,128.445,414.737,127.764,415.138L127.764,415.138z"/>
							</g>
						</g>
						<g>
							<circle style="fill:#231F20;" cx="117.138" cy="387.378" r="5.345"/>
							<circle style="fill:#FFFFFF;" cx="117.138" cy="387.378" r="1.681"/>
						</g>
						<path d="M136.848,405.593c-3.069-0.847-9.289-1.628-6.948,2.925c1.005,1.954,6.736,6.774,6.948,6.684
							c0.212,0.09,5.944-4.73,6.948-6.684C146.137,403.965,139.917,404.746,136.848,405.593z"/>
						<g>
							<g>
								<path style="fill:#1D1D1B;" d="M148.431,412.782c18.193,1.158,34.253,10.56,49.552,19.675
									c0.679,0.404,1.296-0.654,0.618-1.058c-15.5-9.234-31.743-18.669-50.17-19.842
									C147.644,411.507,147.647,412.732,148.431,412.782L148.431,412.782z"/>
							</g>
						</g>
						<g>
							<g>
								<path style="fill:#1D1D1B;" d="M148.782,407.802c15.77-2.024,31.741-0.843,47.037,3.501c0.76,0.216,1.084-0.966,0.326-1.181
									c-15.392-4.371-31.49-5.582-47.362-3.545C148.01,406.676,148.001,407.902,148.782,407.802L148.782,407.802z"/>
							</g>
						</g>
						<g>
							<g>
								<path style="fill:#1D1D1B;" d="M145.314,416.195c13.603,8.005,25.882,18.015,36.468,29.721
									c0.53,0.586,1.394-0.282,0.866-0.866c-10.653-11.78-23.028-21.858-36.716-29.913
									C145.251,414.737,144.634,415.795,145.314,416.195L145.314,416.195z"/>
							</g>
						</g>
						<g>
							<circle style="fill:#231F20;" cx="156.558" cy="387.378" r="5.345"/>
							<circle style="fill:#FFFFFF;" cx="156.558" cy="387.378" r="1.681"/>
						</g>
					</g>
					<path style="opacity:0.2;fill:#FFFFFF;" d="M136.477,308.208c-43.922,0.302-79.437,35.714-79.437,79.368
						c0,26.481,13.08,49.918,33.166,64.339c-0.996,5.175-1.636,10.439-1.906,15.794c-0.225,4.466-1.289,11.671-0.001,15.923
						c1.488,4.914,8.969,4.319,13.483,6.318c5.23,2.315,9.866,4.433,15.636,5.443c4.585,0.803,13.976,1.442,19.06-0.832V308.208z"/>
				</g>
			</g>
		</g>
		<g>
			<circle style="fill:#BBD64A;" cx="663.878" cy="635.456" r="102.276"/>
			<g>
				<defs>
					<circle id="SVGID_00000140004085329617159710000018329169410581418922_" cx="663.878" cy="635.456" r="102.276"/>
				</defs>
				<clipPath id="SVGID_00000008848009155963315060000008652216284912563374_">
					<use xlink:href="#SVGID_00000140004085329617159710000018329169410581418922_"  style="overflow:visible;"/>
				</clipPath>
				<g style="clip-path:url(#SVGID_00000008848009155963315060000008652216284912563374_);">
					<g>
						<path style="fill:#BC4029;" d="M631.549,662.387c-0.93,2.389,0.873,6.847,0.092,10.021c-0.934,3.795-2.732,7.898-4.363,11.413
							c-3.366,7.251-8.238,13.708-11.421,21.052c-2.924,6.747-4.527,13.973-4.518,21.292c0.004,3.78-0.591,8.176,0.239,11.872
							c1.182,5.261,7.301,7.967,11.948,9.883c14.944,6.162,31.054,13.107,46.88,5.966c-0.842-2.33,0.505-5.167,0.675-7.653
							c0.423-6.215,0.312-12.717,0.276-18.928c-0.072-12.52,0.558-25.809,0-38.277c-0.324-7.225-2.036-14.38-8.715-18.974
							c-4.696-3.23-9.546-3.869-14.722-5.725C643.995,662.921,639.854,661.1,631.549,662.387z"/>
						<path style="fill:#BC4029;" d="M696.206,662.373c0.93,2.389-0.873,6.847-0.092,10.021c0.934,3.795,2.732,7.898,4.363,11.413
							c3.366,7.251,8.238,13.708,11.421,21.052c2.924,6.747,4.526,13.973,4.518,21.292c-0.004,3.78,0.591,8.176-0.239,11.872
							c-1.182,5.261-7.301,7.967-11.948,9.883c-14.944,6.162-31.054,13.107-46.88,5.966c0.842-2.329-0.505-5.167-0.674-7.653
							c-0.423-6.215-0.312-12.717-0.276-18.928c0.072-12.52-0.558-25.81,0-38.277c0.324-7.225,2.036-14.38,8.715-18.974
							c4.696-3.23,9.546-3.869,14.722-5.725C683.76,662.906,687.901,661.086,696.206,662.373z"/>
						<path style="fill:#E9D8C9;" d="M692.516,738.3c-0.607-11.12-1.043-22.769-5.953-33.031
							c-3.816-7.978-11.18-17.662-21.117-17.77c-0.463-0.166-0.953-0.228-1.467-0.181c-0.629-0.094-1.22-0.02-1.774,0.198
							c-9.885,0.173-17.211,9.817-21.015,17.767c-4.909,10.262-5.345,21.911-5.952,33.031c-0.473,8.656-2.857,26.272,6.276,31.415
							c4.84,2.725,12.366,3.373,17.745,2.606c1.764-0.251,3.291-0.676,4.633-1.252c1.335,0.569,2.853,0.988,4.602,1.238
							c5.379,0.766,12.905,0.119,17.745-2.606C695.374,764.572,692.989,746.957,692.516,738.3z"/>
						<g>
							<g>
								<path id="XMLID_2_" style="fill:#702E1E;" d="M610.74,558.988c0,0,9.681,0.164,21,8.581
									c11.319,8.417,16.761,16.899,18.068,19.656c1.306,2.757,2.032,5.514,2.032,5.514s-13.496,2.177-19.591,6.095
									c-6.095,3.918-13.205,13.205-13.205,13.205s-4.53-5.474-8.303-17.374C606.967,582.766,607.402,563.922,610.74,558.988z"/>
								<path style="fill:#E9D8C9;" d="M629.708,572.988c-9.578-9.578-16.081-11.193-17.387-10.613s-0.467,13.938,1.129,20.323
									c1.596,6.385,4.143,13.089,6.755,18.313c1.352,2.704,2.49,4.511,3.343,5.69c2.514-2.766,5.727-5.955,8.702-7.867
									c2.937-1.888,7.591-3.37,11.626-4.401C641.162,589.302,636.86,580.14,629.708,572.988z"/>
							</g>
							<path style="fill:#E9D8C9;" d="M614.956,615.652c0,0,3.763,4.652-2.07,13.224c-11.065,16.258-33.846,11.047-33.846,11.047
								l17.196,6.748c0,0-1.524,2.177-7.183,5.333c-4.873,2.718-6.53,3.156-6.53,3.156s7.619,2.177,12.19,2.177
								s7.836-0.218,7.836-0.218s-4.136,4.136-5.442,6.53c-1.306,2.394-1.741,3.918-1.741,3.918s22.856-5.877,42.228,3.265
								c19.373,9.142,22.638,20.026,23.291,22.638s1.741,0.218,1.741,0.218s0.871-35.916-5.006-52.241
								c-5.877-16.325-14.149-35.481-21.114-36.134S614.956,615.652,614.956,615.652z"/>
							<g>
								<circle style="fill:#231F20;" cx="634.51" cy="642.65" r="5.912"/>
								<circle style="fill:#FFFFFF;" cx="634.51" cy="642.65" r="1.859"/>
							</g>
							<ellipse style="fill:#231F20;" cx="663.859" cy="695.32" rx="6.312" ry="7.292"/>
						</g>
						<g>
							<g>
								<path id="XMLID_1_" style="fill:#702E1E;" d="M717.015,558.974c0,0-9.681,0.164-21,8.581
									c-11.319,8.417-16.762,16.899-18.068,19.656c-1.306,2.757-2.032,5.514-2.032,5.514s13.496,2.177,19.59,6.095
									c6.095,3.918,13.205,13.205,13.205,13.205s4.53-5.474,8.303-17.374C720.788,582.752,720.353,563.907,717.015,558.974z"/>
								<path style="fill:#E9D8C9;" d="M698.047,572.974c9.578-9.578,16.081-11.193,17.387-10.613
									c1.306,0.58,0.467,13.938-1.129,20.323c-1.596,6.385-4.143,13.089-6.755,18.313c-1.352,2.704-2.49,4.511-3.343,5.69
									c-2.514-2.766-5.727-5.955-8.701-7.867c-2.937-1.888-7.591-3.37-11.626-4.401
									C686.593,589.287,690.896,580.125,698.047,572.974z"/>
							</g>
							<path style="fill:#E9D8C9;" d="M712.8,615.637c0,0-3.763,4.652,2.07,13.224c11.065,16.258,33.846,11.047,33.846,11.047
								l-17.196,6.748c0,0,1.524,2.177,7.183,5.333c4.873,2.718,6.53,3.156,6.53,3.156s-7.619,2.177-12.19,2.177
								s-7.836-0.218-7.836-0.218s4.136,4.136,5.442,6.53s1.741,3.918,1.741,3.918s-22.856-5.877-42.228,3.265
								s-22.638,20.026-23.291,22.638c-0.653,2.612-1.741,0.218-1.741,0.218s-0.871-35.916,5.006-52.241
								c5.877-16.325,14.149-35.481,21.114-36.134C698.216,604.645,712.8,615.637,712.8,615.637z"/>
							<g>
								<circle style="fill:#231F20;" cx="693.245" cy="642.636" r="5.912"/>
								<circle style="fill:#FFFFFF;" cx="693.245" cy="642.636" r="1.859"/>
							</g>
							<path style="fill:#BC4029;" d="M701.547,598.151c-14.258-12.79-61.142-12.721-75.339,0.014
								c-15.131,13.573-19.871,37.484-19.871,37.484s13.349-11.038,24.613-9.484c13.097,1.806,19.558,6.304,23.258,23.936
								c3.7,17.631,6.458,45.545,6.458,45.545h3.047h0.994v-0.014h2.38c0,0,2.758-27.913,6.458-45.545s10.161-22.129,23.258-23.936
								c11.264-1.554,24.613,9.484,24.613,9.484S716.678,611.724,701.547,598.151z"/>
							<ellipse style="fill:#231F20;" cx="663.896" cy="695.305" rx="6.312" ry="7.292"/>
						</g>
					</g>
					<path style="opacity:0.2;fill:#FFFFFF;" d="M663.044,588.608c-4.168,0.034-8.325,0.296-12.307,0.805
						c-0.266-0.694-0.574-1.438-0.929-2.188c-1.306-2.757-6.749-11.24-18.068-19.656s-21-8.581-21-8.581
						c-3.338,4.934-3.773,23.778,0,35.678c2.217,6.991,4.688,11.747,6.355,14.496c-7.43,11.712-10.336,24.502-10.712,26.269
						c-11.662,8.067-27.343,4.491-27.343,4.491l17.196,6.748c0,0-1.524,2.177-7.183,5.333c-4.873,2.718-6.53,3.156-6.53,3.156
						s7.619,2.177,12.19,2.177s7.836-0.218,7.836-0.218s-4.136,4.136-5.442,6.53c-1.306,2.394-1.741,3.918-1.741,3.918
						s18.521-4.757,36.35,0.962c0.149,1.356,0.215,2.706-0.074,3.88c-0.934,3.795-2.732,7.898-4.363,11.413
						c-3.366,7.251-8.238,13.708-11.421,21.052c-2.924,6.747-4.527,13.973-4.518,21.292c0.004,3.78-0.591,8.176,0.239,11.872
						c1.182,5.261,7.301,7.967,11.948,9.883c3.639,1.5,7.347,3.046,11.103,4.424c0.165,7.203,1.581,14.398,6.886,17.385
						c4.84,2.725,12.366,3.373,17.745,2.606c1.404-0.2,2.654-0.514,3.784-0.923V588.608z"/>
				</g>
			</g>
		</g>
		<g>
			<circle style="fill:#FFCA3C;" cx="663.878" cy="387.088" r="102.276"/>
			<g>
				<defs>
					<circle id="SVGID_00000028293908216140568850000018418452350318295968_" cx="663.878" cy="387.088" r="102.276"/>
				</defs>
				<clipPath id="SVGID_00000059289200479322880960000013229946015267591563_">
					<use xlink:href="#SVGID_00000028293908216140568850000018418452350318295968_"  style="overflow:visible;"/>
				</clipPath>
				<g style="clip-path:url(#SVGID_00000059289200479322880960000013229946015267591563_);">
					<g>
						<path style="fill:#818689;" d="M719.782,450.837c-0.414-8.298-1.287-17.184-3.24-25.294
							c-1.726-7.167-3.871-25.108-9.689-29.076c-3.419-8.651-21.982-7.694-30.065-5.142c-9.278,2.93-12.437,7.246-13.357,13.215
							c-0.92-5.97-4.079-10.286-13.357-13.215c-8.083-2.553-26.646-3.509-30.065,5.142c-5.818,3.968-7.962,21.909-9.689,29.076
							c-1.953,8.11-2.827,16.996-3.24,25.294c-0.329,6.606-0.799,14.533,0.444,20.914c2.037,10.457,15.384,14.738,24.734,16.816
							c9.856,2.19,20.776,1.837,30.896,1.39c0.107-0.717,0.184-1.437,0.277-2.155c0.093,0.718,0.171,1.439,0.277,2.155
							c10.12,0.447,21.04,0.8,30.896-1.39c9.35-2.078,22.697-6.359,24.734-16.816C720.581,465.371,720.111,457.443,719.782,450.837z
							 M663.431,418.865c0.227,5.528,0.172,11.092,0,16.672C663.259,429.957,663.204,424.393,663.431,418.865z"/>
						<path style="fill:#C1BDBB;" d="M708.188,425.891c-1.604-4.339-3.673-7.912-3.117-12.719c0.513-4.43,2.22-7.832,2.227-12.696
							c-1.274-5.124-13.797-8.371-18.527-8.952c-7.328-0.899-18.291-1.898-25.34,1.949c-7.049-3.847-18.012-2.849-25.34-1.949
							c-4.73,0.58-17.253,3.828-18.527,8.952c0.008,4.864,1.715,8.266,2.227,12.696c0.556,4.807-1.513,8.38-3.117,12.719
							c-3.642,9.853,1.186,21.186,7.139,29.388c7.484,10.312,17.721,19.25,29.845,23.935c2.636,1.019,5.352,1.756,7.773,1.506
							c2.421,0.251,5.137-0.487,7.773-1.506c12.124-4.685,22.362-13.622,29.845-23.935
							C707.002,447.076,711.83,435.743,708.188,425.891z"/>
						<g>
							<path style="fill:#818689;" d="M643.174,352.016c-3.166-14.519-19.095-27.114-33.265-27.585
								c-9.99-0.332-34.758,10.301-20.327,22.534c-11.395,2.152-10.474,12.458,0.751,13.303c-3.754,6.707-3.227,13.492,6.472,13.777
								c-0.51,13.623,23.146,17.775,32.641,12.248C642.218,378.858,638.681,362.495,643.174,352.016z"/>
							<path style="fill:#C1BDBB;" d="M628.57,395.828c14.015-14.661,13.443-34.788,0.611-49.272
								c-4.919-5.552-9.954-10.711-18.162-10.696c-7.724,0.014-12.635,5.286-11.654,13.163c0.687,5.518,4.903,5.851,4.873,7.533
								c-0.032,1.747-2.525,2.863-2.777,6.217c-0.431,5.746,2.148,8.028,7.557,9.732c-5.227,9.714,10.596,10.336,16.166,10.482
								C627.053,387.523,624.557,392.911,628.57,395.828z"/>
						</g>
						<g>
							<path style="fill:#818689;" d="M683.688,352.016c3.166-14.519,19.095-27.114,33.265-27.585
								c9.99-0.332,34.758,10.301,20.327,22.534c11.395,2.152,10.474,12.458-0.751,13.303c3.754,6.707,3.227,13.492-6.472,13.777
								c0.51,13.623-23.146,17.775-32.641,12.248C684.644,378.858,688.181,362.495,683.688,352.016z"/>
							<path style="fill:#C1BDBB;" d="M698.292,395.828c-14.015-14.661-13.443-34.788-0.611-49.272
								c4.919-5.552,9.954-10.711,18.162-10.696c7.724,0.014,12.635,5.286,11.654,13.163c-0.687,5.518-4.903,5.851-4.873,7.533
								c0.032,1.747,2.525,2.863,2.777,6.217c0.431,5.746-2.148,8.028-7.557,9.732c5.227,9.714-10.596,10.336-16.166,10.482
								C699.809,387.523,702.305,392.911,698.292,395.828z"/>
						</g>
						<path style="fill:#818689;" d="M712.848,370.36c-4.761-10.965-9.466-21.866-18.704-29.939
							c-8.365-7.31-19.697-7.538-30.368-7.545c0.001,0,0.001-0.001,0.001-0.001c-0.115,0-0.231,0-0.346,0c-0.115,0-0.231,0-0.346,0
							c0.001,0,0.001,0.001,0.001,0.001c-10.672,0.006-22.003,0.235-30.369,7.545c-9.238,8.073-13.944,18.974-18.705,29.939
							c-3.293,7.584-5.866,19.182-2.867,27.344c3.771,10.262,14.797,16.539,24.556,19.782c8.356,2.777,18.965,2.972,27.728,2.551
							c8.763,0.421,19.372,0.226,27.729-2.551c9.759-3.244,20.785-9.521,24.556-19.782
							C718.714,389.542,716.141,377.944,712.848,370.36z M663.431,333.104c0.728,0.493,0.454,0.444,0,0.455
							C662.977,333.548,662.703,333.597,663.431,333.104z"/>
						<g>
							<g>
								<path style="fill:#231F20;" d="M662.962,395.842c1.487,5.514-1.951,10.125-7.096,11.931
									c-4.439,1.558-8.554,0.845-12.686-1.121c-0.263-0.125-0.545,0.192-0.323,0.418c7.193,7.319,25.273-0.462,20.544-11.414
									C663.292,395.401,662.892,395.585,662.962,395.842L662.962,395.842z"/>
							</g>
						</g>
						<g>
							<circle style="fill:#231F20;" cx="642.283" cy="371.52" r="5.831"/>
							<circle style="fill:#FFFFFF;" cx="642.283" cy="371.52" r="1.834"/>
						</g>
						<path style="fill:#231F20;" d="M674.556,370.852c-1.631-6.641-4.572-7.673-10.439-7.783c-0.002-0.004-0.004-0.009-0.007-0.013
							c-0.234,0-0.454,0.003-0.68,0.005c-0.226-0.002-0.446-0.005-0.68-0.005c-0.002,0.004-0.004,0.009-0.006,0.013
							c-5.867,0.111-8.808,1.142-10.439,7.783c-1.211,4.928-2.235,11.218-1.951,16.388c0.278,5.049,2.712,10.844,11.007,12.317
							c0.545,0.22,1.227,0.313,2.069,0.26c0.842,0.053,1.524-0.04,2.069-0.26c8.295-1.473,10.729-7.268,11.007-12.317
							C676.791,382.07,675.767,375.78,674.556,370.852z"/>
						<g>
							<g>
								<path style="fill:#231F20;" d="M664.638,395.656c-4.729,10.951,13.351,18.732,20.544,11.414
									c0.221-0.225-0.057-0.544-0.323-0.418c-4.132,1.967-8.247,2.68-12.686,1.121c-5.145-1.806-8.582-6.418-7.096-11.931
									C665.147,395.588,664.749,395.399,664.638,395.656L664.638,395.656z"/>
							</g>
						</g>
						<g>
							<circle style="fill:#231F20;" cx="684.579" cy="371.52" r="5.831"/>
							<circle style="fill:#FFFFFF;" cx="684.579" cy="371.52" r="1.834"/>
						</g>
					</g>
					<path style="opacity:0.2;fill:#FFFFFF;" d="M664.103,332.877c-0.109,0-0.219-0.001-0.328-0.001
						c0.001,0,0.001-0.001,0.001-0.001c-0.115,0-0.231,0-0.346,0c-0.115,0-0.231,0-0.346,0c0.001,0,0.001,0.001,0.001,0.001
						c-9.372,0.006-19.252,0.186-27.186,5.181c-6.71-7.824-16.726-13.318-25.992-13.626c-9.99-0.332-34.758,10.301-20.326,22.534
						c-11.395,2.152-10.474,12.458,0.751,13.303c-3.754,6.707-3.228,13.492,6.472,13.777c-0.261,6.969,5.806,11.453,13.062,13.437
						c-0.185,3.628,0.157,7.166,1.28,10.222c0.933,2.538,2.311,4.83,4.002,6.894c-2.393,6.979-3.7,16.261-4.828,20.944
						c-1.953,8.11-2.827,16.996-3.24,25.294c-0.329,6.606-0.799,14.534,0.444,20.914c2.037,10.457,15.384,14.738,24.734,16.816
						c9.856,2.19,20.776,1.837,30.896,1.39c0.107-0.717,0.184-1.437,0.277-2.155c0.093,0.718,0.17,1.439,0.277,2.155
						c0.131,0.006,0.265,0.011,0.396,0.016V332.877z M663.431,333.558c-0.454-0.01-0.728,0.039,0-0.455
						C664.159,333.597,663.885,333.548,663.431,333.558z"/>
				</g>
			</g>
		</g>
	</g>
</g>
</svg>
